<svg xmlns="http://www.w3.org/2000/svg" width="140.698" height="131.172" viewBox="0 0 140.698 131.172">
  <g id="Icon_ionic-logo-dropbox" data-name="Icon ionic-logo-dropbox" transform="translate(-4.5 -5.414)">
    <path id="Path_83" data-name="Path 83" d="M45.9,5.414,4.5,32.491,33.116,55.465,74.849,29.633Z" transform="translate(0 0)" fill="#fb8231"/>
    <path id="Path_84" data-name="Path 84" d="M4.5,37.992,45.9,65.069,74.849,40.85,33.116,15.019Z" transform="translate(0 40.446)" fill="#fb8231"/>
    <path id="Path_85" data-name="Path 85" d="M18,40.85,46.946,65.069l41.4-27.077L59.733,15.019Z" transform="translate(56.849 40.446)" fill="#fb8231"/>
    <path id="Path_86" data-name="Path 86" d="M88.349,32.491,46.946,5.414,18,29.633,59.733,55.465Z" transform="translate(56.849 0)" fill="#fb8231"/>
    <path id="Path_87" data-name="Path 87" d="M51.827,20.974,22.589,45.157l-12.6-8.134v9.123l41.77,24.915,41.77-24.915V37.023L80.993,45.157Z" transform="translate(23.095 65.525)" fill="#fc9928"/>
  </g>
</svg>
