<svg xmlns="http://www.w3.org/2000/svg" width="144.398" height="144.559" viewBox="0 0 144.398 144.559">
  <path id="Icon_awesome-battle-net" data-name="Icon awesome-battle-net" d="M126.6,63.7c7.587.051,10.043-2.1,10.989-3.493,3.521-4.608-1.993-13.44-14.922-20.14A134.839,134.839,0,0,0,132.93,15.984c.954-3.34.308-5.365.127-5.718-.486,2.97-4.475,13.683-13.609,28.249A85.535,85.535,0,0,0,92.972,31.8C90.448,27.013,83.124,13.765,75.9,6.687,71.141,2.014,67.335.3,64.365.06h-.014a8.876,8.876,0,0,0-7.736,3.106c-4.856,5.232-6.87,13.8-7.059,23.737-2.044-3.487-4.848-6.954-8.047-7.321h-.051c-5.833-.983-10.839,8.25-10.165,22.952A135.076,135.076,0,0,0,5.035,45.7,9.148,9.148,0,0,0,.02,48.449c.282-.107,6.325-2.6,31.5-2.6A86.369,86.369,0,0,0,38.86,72.157c-2.747,4.348-10.8,17.607-13.358,27.585-1.657,6.46-1.234,10.619.042,13.31a8.91,8.91,0,0,0,6.55,5.156c7.059,1.612,15.636-1.025,24.48-5.969-2.126,3.625-3.925,8.05-2.558,11.108,2.064,5.548,12.562,5.269,24.971-2.668a133.6,133.6,0,0,0,15.727,20.928,11.235,11.235,0,0,0,2.471,2,5.613,5.613,0,0,0,2.423.952c-2.327-1.906-9.6-10.729-17.658-25.914A85.2,85.2,0,0,0,101,99.088c34.678,1.3,40.458-6.991,41.788-8.934,4.142-5.613.968-16.218-16.184-26.453ZM104.622,93.692c6.723-10.647,8.566-19.135,8.315-26.069,7.866,4.961,13.321,10.611,13.852,16.611C127.111,87.884,124.5,92.455,104.622,93.692ZM61.18,109.461c2.756-1.759,5.514-3.7,8.245-5.785,1.886,3.764,3.84,7.369,5.816,10.783C63.777,120.631,55.8,118.062,61.18,109.461Zm60.7-48.38c-2.905-1.508-5.974-2.919-9.142-4.249q3.366-5.112,6.421-10.419c11.029,6.8,12.96,15.015,2.722,14.668Zm-43.12,51.291q-2.334-4.807-4.659-10.289c12.212.359,17.624-5.288,17.867-5.763,0,.02-7.059,4.416-17.655,3.459A202.945,202.945,0,0,0,98.334,76.062q3.687-4.323,7.039-8.784c-.1-.082-.435-.847-4.662-3.388-14.6,17.017-28.9,27.67-37.482,32.73C57.416,93.463,51.7,87.647,47.5,79.259a84.815,84.815,0,0,1-8.914-32.772c3.473.257,7.135.613,10.969,1.1-6.294,10.39-4.063,17.788-3.8,18.135A30.536,30.536,0,0,1,51.439,48.9,196.3,196.3,0,0,0,64.051,92.052c.263-.107.52.248,5.271-2.329-7.434-21.026-9.532-39.012-9.6-48.968,5.647-3.507,13.6-5.59,23.048-5.029A85.1,85.1,0,0,1,115.614,44.4q-3.018,4.422-6.587,9.168c-5.853-10.65-13.344-12.389-13.8-12.344a30.717,30.717,0,0,1,11.723,13.332A202.621,202.621,0,0,0,74.388,45.6q-5.533-1.025-11.122-1.708c-.02.127-.511.522-.61,5.74,21.986,4.091,38.583,11.263,47.217,16.153.209,6.649-1.962,14.572-7.174,22.466A84.914,84.914,0,0,1,78.764,112.372ZM86.5,31.338c-12.581-.469-20.775,2.1-26.736,5.836.565-14.767,6.017-21.566,10.789-21.255,4.772-1.2,15.5,14.727,15.947,15.419Zm-36.889.875c.136,3.419.449,6.951.906,10.526-4.108-.24-8.115-.353-11.972-.356-.023.915-.034-14.4,6.966-14h.025C47.164,28.69,48.539,30.325,49.612,32.214Zm-7.923,45.74c5.862,11.209,12.226,17.1,18.423,20.417-13.211,6.991-21.89,5.647-23.977,1.273-.056-.059-3.143-4.32,5.554-21.687ZM101,99.074" transform="translate(-0.02 -0.001)" fill="#fb8231"/>
</svg>
