<svg xmlns="http://www.w3.org/2000/svg" width="140.421" height="162.071" viewBox="0 0 140.421 162.071">
  <path id="Icon_simple-matternet" data-name="Icon simple-matternet" d="M121.432,28.227,93.975,43.942V12.331L72.568,0,51.188,12.358V43.942L23.859,28.16,2.425,40.518V65.261L29.781,81.036,2.4,96.858v24.7l21.373,12.365L51.087,118.13V149.74L72.5,162.071l21.434-12.365V118.13L121.3,133.844l21.427-12.351V96.871l-27.3-15.836,27.4-15.775V40.518l-21.366-12.29h-.027Zm2.519,23.156V38.593l11.068,6.361V57.819l-11.048-6.436h-.02Zm11.061,62.708L93.988,90.429l11.142-6.382,29.875,17.247v12.8l.007-.007ZM88.91,87.417,77.768,81.036l43.57-25.162,11.082,6.375L88.89,87.417h.02ZM12.743,62.256l11.082-6.375L67.4,81.036,56.334,87.417,12.743,62.256Zm38.424,28.16L10.143,114.1v-12.81L40.093,84.041l11.082,6.382v-.007ZM10.143,57.832V44.975l11.075-6.382V51.41L10.143,57.832Zm65.011,0V10.467l11.082,6.328v34.6L75.154,57.826ZM58.934,51.35V16.835L70.008,10.46v47.3Zm59.872-12.756V51.41l-43.6,25.216V63.762ZM69.995,63.741v12.81L26.378,51.383V38.593L70,63.721ZM53.768,107.723,23.818,124.977,12.743,118.6,53.761,94.913v12.81ZM58.934,91.9,70.008,85.52v50.33l-11.075,6.476Zm24.689,54.8-11.068,6.442-11.075-6.422,11.075-6.388,11.068,6.388Zm2.661-4.437L75.154,135.85V85.6l11.129,6.375v50.289Zm46.13-23.662-11.082,6.375L91.449,107.723V94.913L132.473,118.6h-.061Z" transform="translate(-2.404)" fill="#fb8231"/>
</svg>
