<svg xmlns="http://www.w3.org/2000/svg" xmlns:xlink="http://www.w3.org/1999/xlink" width="41.125" height="41.125" viewBox="0 0 41.125 41.125">
  <defs>
    <filter id="Icon_awesome-check-circle" x="0" y="0" width="41.125" height="41.125" filterUnits="userSpaceOnUse">
      <feOffset dy="3" input="SourceAlpha"/>
      <feGaussianBlur stdDeviation="3" result="blur"/>
      <feFlood flood-opacity="0.161"/>
      <feComposite operator="in" in2="blur"/>
      <feComposite in="SourceGraphic"/>
    </filter>
  </defs>
  <g transform="matrix(1, 0, 0, 1, 0, 0)" filter="url(#Icon_awesome-check-circle)">
    <path id="Icon_awesome-check-circle-2" data-name="Icon awesome-check-circle" d="M23.688,12.125A11.563,11.563,0,1,1,12.125.563,11.562,11.562,0,0,1,23.688,12.125Zm-12.9,6.122,8.579-8.579a.746.746,0,0,0,0-1.055L18.311,7.559a.746.746,0,0,0-1.055,0l-7,7L6.994,11.289a.746.746,0,0,0-1.055,0L4.884,12.343a.746.746,0,0,0,0,1.055l4.849,4.849a.746.746,0,0,0,1.055,0Z" transform="translate(8.44 5.44)" fill="#fff"/>
  </g>
</svg>
