<svg width="34" height="34" viewBox="0 0 34 34" fill="none" xmlns="http://www.w3.org/2000/svg">
<path d="M25.4559 10.5205L19.1446 16.8318C19.0355 16.9409 19.0355 17.1179 19.1446 17.2271L25.4559 23.5383C26.0016 24.0841 26.0016 24.969 25.4559 25.5147C24.9101 26.0604 24.0252 26.0604 23.4795 25.5147L17.1682 19.2035C17.0591 19.0943 16.8821 19.0943 16.7729 19.2035L10.4617 25.5147C9.91596 26.0604 9.03103 26.0604 8.4853 25.5147C7.93957 24.969 7.93957 24.0841 8.4853 23.5383L14.7966 17.2271C14.9057 17.1179 14.9057 16.9409 14.7966 16.8318L8.4853 10.5205C7.93957 9.97482 7.93957 9.08988 8.4853 8.54416C9.03103 7.99843 9.91596 7.99843 10.4617 8.54416L16.7729 14.8554C16.8821 14.9646 17.0591 14.9646 17.1682 14.8554L23.4795 8.54416C24.0252 7.99843 24.9101 7.99843 25.4559 8.54416C26.0016 9.08988 26.0016 9.97482 25.4559 10.5205Z" fill="white"/>
</svg>
