<svg xmlns="http://www.w3.org/2000/svg" width="69.372" height="47.578" viewBox="0 0 69.372 47.578">
  <path id="Icon_awesome-free-code-camp" data-name="Icon awesome-free-code-camp" d="M8.158,14.313c-5.08,8.487-4.51,20.2.124,28.126,2.751,4.733,6.158,6.492,6.158,8.239a1.653,1.653,0,0,1-1.586,1.611C10.437,52.289.563,42.935.563,27.781c0-13.815,9.664-23.046,12.031-23.046.743,0,1.846.595,1.846,1.375C14.439,7.685,10.933,9.655,8.158,14.313ZM32.418,40.8c.558.223,1.524.644,1.524-.149,0-.335-.273-.359-.533-.446a4.745,4.745,0,0,1-2.367-1.883,7.919,7.919,0,0,1-1.251-4.783c0-3.977,5.476-4.7,5.476-8.673,0-1.524-.954-1.97-.954-2.391,0-.273.087-.273.359-.273.991,0,2.367,1.648,2.788,2.453a2.413,2.413,0,0,1,.3,1.375c0,.867-.087,1.759-.087,2.639,0,3.345,3.952,2.453,3.952.843,0-.743-.446-1.437-.446-2.156,0-.087,0-.149.087-.149.421,0,1.165.954,1.375,1.251a7.373,7.373,0,0,1,1.053,3.891c0,4.014-3.655,6.071-3.655,6.938,0,.124.359.954,1.5.235A12.3,12.3,0,0,0,48.116,28.4a13.573,13.573,0,0,0-3.977-10.234c-.483-.508-2.032-2.094-2.788-2.094-1.016,0,.892,2.3.892,3.866a1.444,1.444,0,0,1-1.524,1.524c-1.437,0-1.8-3.147-1.97-4.126C38.03,13.149,37.163,10.125,33,8.155c-1.289-.62-4.522-1.462-4.522-.273,0,.3.335.508.57.632a5.982,5.982,0,0,1,2.428,4.733c0,5.712-7.149,10.928-7.149,16.875C24.3,35.116,27.808,39.118,32.418,40.8ZM57.854,4.711A1.968,1.968,0,0,0,56.07,6.272c0,1.078,1.5,2.428,2.181,3.147,10.11,10.544,9.739,26.552,2.181,36.055-.867,1.1-4.374,4.374-4.374,5.39,0,.632,1.016,1.412,1.635,1.412,3.147,0,12.241-10.011,12.241-23.008C69.947,14.487,60.506,4.711,57.854,4.711ZM52.613,44.743H20.263a1.977,1.977,0,0,0,0,3.952H52.613c1.165,0,1.474-.929,1.474-2.032,0-1.053-.434-1.92-1.474-1.92Z" transform="translate(-0.563 -4.711)" fill="#fb8231"/>
</svg>
