<svg xmlns="http://www.w3.org/2000/svg" width="27.223" height="23.059" viewBox="0 0 27.223 23.059">
  <g id="Group_139" data-name="Group 139" transform="translate(58.93 -1817.264)">
    <path id="Path_136" data-name="Path 136" d="M-32.057,1819.67v8.049h-2.025v2.056h-2.061v1.977l-.055.055h-2v2l-.06.055H-40.22v2.042h-2.031v2.042H-44.3v1.964l-.056.06h-1.916l-.068-.058v-1.94h-2.048v-2.063h-1.992c-.018-.015-.038-.031-.056-.048v-1.977H-52.48v-2.077H-54.5a.229.229,0,0,0-.011-.07V1829.8h-2.043v-2.051H-58.58v-8.072h2.012v-2.03h8.3v2.023h2.041v2h2.015v-1.991h2.058v-1.967a.385.385,0,0,0,0-.064,2.768,2.768,0,0,1,.28-.027q3.723,0,7.446,0c.1,0,.206.014.343.024v2.033Z" transform="translate(0 0)" fill="#fd0000" stroke="#000" stroke-miterlimit="10" stroke-width="0.7"/>
    <path id="Path_141" data-name="Path 141" d="M-24.851,1852.591h-1.91l-.055-.058q0-1.984,0-3.967l.056-.056h1.98v-2.034H-20.7v2.033h-2.03v2.032h-2.061v1.994Z" transform="translate(-29.51 -26.815)" fill="#fefefe"/>
  </g>
</svg>
