<svg xmlns="http://www.w3.org/2000/svg" width="40.511" height="40.511" viewBox="0 0 40.511 40.511">
  <g id="Icon_feather-instagram" data-name="Icon feather-instagram" transform="translate(1.5 1.5)">
    <path id="Path_103" data-name="Path 103" d="M12.378,3H31.133a9.378,9.378,0,0,1,9.378,9.378V31.134a9.378,9.378,0,0,1-9.378,9.378H12.378A9.378,9.378,0,0,1,3,31.134V12.378A9.378,9.378,0,0,1,12.378,3Z" transform="translate(-3 -3)" fill="none" stroke="#fb8231" stroke-linecap="round" stroke-linejoin="round" stroke-width="3"/>
    <path id="Path_104" data-name="Path 104" d="M26.988,18.337a7.5,7.5,0,1,1-6.321-6.321A7.5,7.5,0,0,1,26.988,18.337Z" transform="translate(-0.73 -0.763)" fill="none" stroke="#fb8231" stroke-linecap="round" stroke-linejoin="round" stroke-width="3"/>
    <path id="Path_105" data-name="Path 105" d="M26.25,9.75h0" transform="translate(2.82 -1.31)" fill="none" stroke="#fb8231" stroke-linecap="round" stroke-linejoin="round" stroke-width="3"/>
  </g>
</svg>
