<svg id="Icon_awesome-linkedin" data-name="Icon awesome-linkedin" xmlns="http://www.w3.org/2000/svg" width="39.386" height="39.387" viewBox="0 0 39.386 39.387">
  <path id="Icon_awesome-linkedin-2" data-name="Icon awesome-linkedin" d="M36.573,2.25H2.8A2.825,2.825,0,0,0,0,5.09V38.8a2.825,2.825,0,0,0,2.8,2.84H36.573a2.833,2.833,0,0,0,2.813-2.84V5.09A2.833,2.833,0,0,0,36.573,2.25ZM11.9,36.01H6.066v-18.8h5.846v18.8ZM8.985,14.646a3.385,3.385,0,1,1,3.385-3.385,3.386,3.386,0,0,1-3.385,3.385Zm24.8,21.364H27.949V26.867c0-2.18-.044-4.985-3.033-4.985-3.042,0-3.508,2.374-3.508,4.827v9.3H15.57v-18.8h5.6v2.567h.079a6.149,6.149,0,0,1,5.53-3.033c5.908,0,7.007,3.895,7.007,8.959Z" transform="translate(0 -2.25)" fill="#fb8231"/>
</svg>
