<svg xmlns="http://www.w3.org/2000/svg" xmlns:xlink="http://www.w3.org/1999/xlink" width="267.927" height="50.794" viewBox="0 0 267.927 50.794">
  <defs>
    <linearGradient id="linear-gradient" y1="0.5" x2="1" y2="0.5" gradientUnits="objectBoundingBox">
      <stop offset="0" stop-color="#fce129"/>
      <stop offset="0" stop-color="#fcda28"/>
      <stop offset="0" stop-color="#feca27"/>
      <stop offset="0" stop-color="#ffc527"/>
      <stop offset="0.312" stop-color="#fc9e2d"/>
      <stop offset="0.543" stop-color="#fb8631"/>
      <stop offset="0.623" stop-color="#fb7420"/>
      <stop offset="0.737" stop-color="#fc6210"/>
      <stop offset="0.858" stop-color="#fc5806"/>
      <stop offset="1" stop-color="#fd5503"/>
    </linearGradient>
  </defs>
  <g id="Group_137" data-name="Group 137" transform="translate(-128 -831.785)">
    <g id="Group_133" data-name="Group 133" transform="translate(128 832.905)">
      <rect id="Rectangle_100" data-name="Rectangle 100" width="48.554" height="6.936" fill="url(#linear-gradient)"/>
      <rect id="Rectangle_101" data-name="Rectangle 101" width="48.554" height="6.936" transform="translate(0 41.618)" fill="url(#linear-gradient)"/>
      <rect id="Rectangle_102" data-name="Rectangle 102" width="34.681" height="6.936" transform="translate(0 13.873)" fill="url(#linear-gradient)"/>
      <rect id="Rectangle_103" data-name="Rectangle 103" width="34.681" height="6.936" transform="translate(13.873 27.745)" fill="url(#linear-gradient)"/>
    </g>
    <g id="Group_135" data-name="Group 135" transform="translate(195.153 831.785)">
      <circle id="Ellipse_29" data-name="Ellipse 29" cx="5" cy="5" r="5" transform="translate(159.847 0)" fill="url(#linear-gradient)"/>
      <g id="Group_134" data-name="Group 134" transform="translate(0 5.078)">
        <path id="Path_128" data-name="Path 128" d="M270.594,868.994v7.574h-3.855q-9.752,0-9.751-9.66v-8.39h-3.129v-7.392h3.129v-6.169h8.934v6.169h4.626v7.392h-4.626v8.526a2,2,0,0,0,.476,1.5,2.3,2.3,0,0,0,1.61.454Z" transform="translate(-253.859 -843.007)"/>
        <path id="Path_129" data-name="Path 129" d="M316.572,856.518l-16.145,37.551h-9.66l6.077-13.2-10.431-24.354H296.3l5.352,14.422,5.17-14.422Z" transform="translate(-269.043 -848.399)"/>
        <path id="Path_130" data-name="Path 130" d="M357.836,856.965a9.207,9.207,0,0,1,4.49-1.043,9.986,9.986,0,0,1,5.51,1.587,10.866,10.866,0,0,1,3.9,4.535,17.4,17.4,0,0,1,0,13.81,10.829,10.829,0,0,1-3.9,4.558,9.977,9.977,0,0,1-5.51,1.587,9.07,9.07,0,0,1-4.468-1.043,7.934,7.934,0,0,1-2.971-2.812v15.692H346v-37.6h8.889v3.537A7.555,7.555,0,0,1,357.836,856.965Zm4.966,8.1a4.573,4.573,0,0,0-6.576.022,5.364,5.364,0,0,0-1.338,3.855,5.427,5.427,0,0,0,1.338,3.9,4.523,4.523,0,0,0,6.576-.022,5.45,5.45,0,0,0,1.338-3.878A5.351,5.351,0,0,0,362.8,865.061Z" transform="translate(-296.836 -848.121)"/>
        <path id="Path_131" data-name="Path 131" d="M425.427,870.752H408.6a4.683,4.683,0,0,0,1.156,3.107,3.533,3.533,0,0,0,2.608,1.02,3.269,3.269,0,0,0,3.175-2h9.478a11.092,11.092,0,0,1-2.29,4.694,11.8,11.8,0,0,1-4.287,3.242A13.6,13.6,0,0,1,412.728,882a13.791,13.791,0,0,1-6.689-1.587,11.393,11.393,0,0,1-4.581-4.535,15.422,15.422,0,0,1-.023-13.856,11.3,11.3,0,0,1,4.558-4.512,15.131,15.131,0,0,1,13.4-.045,11.112,11.112,0,0,1,4.535,4.422,13.523,13.523,0,0,1,1.633,6.781A16.106,16.106,0,0,1,425.427,870.752Zm-8.934-4.308a3.192,3.192,0,0,0-1.089-2.563,4.046,4.046,0,0,0-2.722-.93,3.989,3.989,0,0,0-2.675.885,4.293,4.293,0,0,0-1.361,2.608Z" transform="translate(-321.933 -848.121)"/>
        <path id="Path_132" data-name="Path 132" d="M457.152,880.844a10.478,10.478,0,0,1-4.263-3.175,8.234,8.234,0,0,1-1.746-4.558h8.617a2.727,2.727,0,0,0,1.134,1.9,3.947,3.947,0,0,0,2.358.68,2.912,2.912,0,0,0,1.723-.454,1.389,1.389,0,0,0,.635-1.179,1.489,1.489,0,0,0-1.043-1.406,21.519,21.519,0,0,0-3.447-1,29.762,29.762,0,0,1-4.535-1.225,7.7,7.7,0,0,1-3.152-2.222,6.143,6.143,0,0,1-1.338-4.172,7.235,7.235,0,0,1,1.225-4.1,8.375,8.375,0,0,1,3.605-2.925,13.724,13.724,0,0,1,5.737-1.089q4.989,0,7.846,2.449a9.578,9.578,0,0,1,3.311,6.44h-8.027a2.983,2.983,0,0,0-1.066-1.882,3.544,3.544,0,0,0-2.245-.658,2.815,2.815,0,0,0-1.656.408,1.319,1.319,0,0,0-.567,1.134A1.5,1.5,0,0,0,461.3,865.2a17.87,17.87,0,0,0,3.356.975,29.571,29.571,0,0,1,4.6,1.315,8.182,8.182,0,0,1,3.219,2.336,6.494,6.494,0,0,1,1.384,4.376,6.6,6.6,0,0,1-1.293,3.991,8.623,8.623,0,0,1-3.674,2.789,14.152,14.152,0,0,1-5.6,1.02A15.475,15.475,0,0,1,457.152,880.844Z" transform="translate(-345.88 -848.121)"/>
        <path id="Path_133" data-name="Path 133" d="M516.53,874.863l-7.03-10.431v10.431h-8.889V841.3H509.5v18.1l7.03-9.977h10.658L517.165,862.21l10.2,12.653Z" transform="translate(-368.954 -841.302)"/>
        <path id="Path_134" data-name="Path 134" d="M563.219,856.518V881.96H554.33V856.518Z" transform="translate(-394.01 -848.399)"/>
        <path id="Path_135" data-name="Path 135" d="M591.073,856.965a9.208,9.208,0,0,1,4.49-1.043,9.985,9.985,0,0,1,5.51,1.587,10.871,10.871,0,0,1,3.9,4.535,17.4,17.4,0,0,1,0,13.81,10.834,10.834,0,0,1-3.9,4.558,9.977,9.977,0,0,1-5.51,1.587,9.069,9.069,0,0,1-4.468-1.043,7.928,7.928,0,0,1-2.97-2.812v15.692h-8.89v-37.6h8.89v3.537A7.55,7.55,0,0,1,591.073,856.965Zm4.966,8.1a4.574,4.574,0,0,0-6.577.022,5.364,5.364,0,0,0-1.338,3.855,5.426,5.426,0,0,0,1.338,3.9,4.524,4.524,0,0,0,6.577-.022,5.452,5.452,0,0,0,1.337-3.878A5.353,5.353,0,0,0,596.039,865.061Z" transform="translate(-405.627 -848.121)"/>
      </g>
    </g>
  </g>
</svg>
