<svg id="Capa_1" enable-background="new 0 0 511.996 511.996" height="512" viewBox="0 0 511.996 511.996" width="512" xmlns="http://www.w3.org/2000/svg"><g><g><path d="m495.652 20.856c-14.159-14.156-35.407-19.706-54.682-14.246l-66.235 18.746c-21.5 6.084-41.217 17.652-57.009 33.444l-.173.173c-3.911 3.899-3.92 10.231-.02 14.143s10.231 3.919 14.142.02l.183-.183c13.392-13.392 30.102-23.196 48.323-28.353l66.237-18.746c12.367-3.503 26.008.06 35.092 9.145 9.165 9.165 12.666 22.61 9.137 35.086l-18.747 66.237c-5.161 18.234-14.971 34.955-28.371 48.354l-178.985 178.982-30.27-30.269 50.509-50.509c13.931-13.932 13.94-37.226.004-51.163-14.104-14.104-37.052-14.103-51.155 0l-50.515 50.515-30.269-30.269 117.085-117.085c3.905-3.905 3.905-10.237 0-14.143-3.905-3.904-10.237-3.904-14.143 0l-44.542 44.542-71.575-9.974c-27.401-3.82-55.431 5.581-74.991 25.141l-31.836 31.836c-3.845 3.847-3.846 10.295 0 14.143l32.611 32.611c10.726 10.726 24.987 16.633 40.156 16.633 11.781 0 23.005-3.577 32.46-10.193l30.9 30.901-26.016 26.016c-3.905 3.905-3.905 10.237 0 14.143l37.012 37.012c3.848 3.847 10.293 3.848 14.143 0l26.017-26.017 30.901 30.9c-6.616 9.455-10.194 20.679-10.194 32.46 0 15.169 5.907 29.43 16.633 40.155l32.612 32.612c3.846 3.845 10.296 3.846 14.143 0l31.835-31.836c19.56-19.56 28.958-47.594 25.141-74.99l-9.972-71.566 106.445-106.445c15.81-15.81 27.384-35.537 33.473-57.05l18.747-66.239c5.497-19.441.041-40.39-14.241-54.674zm-416.052 224.035-25.541-25.54 24.765-24.765c15.151-15.151 36.863-22.436 58.088-19.475l56.608 7.889-61.892 61.892c-6.948 6.949-16.187 10.775-26.014 10.775s-19.065-3.826-26.014-10.776zm107.441 107.44-22.87-22.869 25.943-25.942c.025-.025.053-.045.078-.07l57.587-57.588c6.304-6.302 16.56-6.303 22.861 0 6.203 6.202 6.221 16.651.004 22.867zm154.35 27.259c2.957 21.222-4.323 42.937-19.475 58.088l-24.764 24.765-25.541-25.541c-6.948-6.948-10.775-16.187-10.775-26.013 0-9.814 3.818-19.041 10.749-25.986.01-.01.022-.019.032-.029l61.886-61.886z"/><path d="m369.768 191.622c11.99 0 23.262-4.669 31.74-13.146 17.501-17.503 17.5-45.979 0-63.48-17.301-17.3-46.178-17.301-63.479 0-17.303 17.303-17.303 46.177 0 63.48 8.477 8.477 19.749 13.146 31.739 13.146zm-17.598-62.484c9.593-9.593 25.602-9.593 35.195 0 9.704 9.703 9.703 25.492 0 35.195-9.594 9.594-25.599 9.595-35.195 0-9.594-9.593-9.596-25.601 0-35.195z"/><path d="m103.103 325.825c3.905-3.905 3.905-10.237 0-14.143-3.905-3.903-10.237-3.904-14.142 0l-86.032 86.032c-3.905 3.905-3.905 10.237 0 14.143 3.853 3.851 10.289 3.853 14.142 0z"/><path d="m127.061 392.269c-3.905-3.904-10.237-3.904-14.143 0l-98.154 98.154c-3.905 3.905-3.905 10.237 0 14.143 3.853 3.852 10.29 3.852 14.143 0l98.154-98.154c3.905-3.905 3.905-10.237 0-14.143z"/><path d="m202.254 395.572-48.627 48.627c-3.905 3.905-3.905 10.237 0 14.143 1.953 1.952 4.512 2.929 7.071 2.929s5.119-.977 7.071-2.929l48.627-48.627c3.905-3.905 3.906-10.237 0-14.143-3.905-3.903-10.237-3.903-14.142 0z"/><path d="m136.59 482.636c-2.096-5.027-8.02-7.5-13.06-5.41-5.027 2.085-7.498 8.032-5.41 13.061 2.087 5.029 8.027 7.499 13.06 5.41 5.027-2.087 7.505-8.027 5.41-13.061z"/><path d="m284.08 101.185c3.383 8.127 15.38 8.03 18.558-.23 1.526-3.965.329-8.639-2.983-11.327-3.25-2.637-7.884-2.99-11.483-.843-4.215 2.514-5.947 7.88-4.092 12.4z"/></g></g></svg>