<svg id="fi-rr-cross-circle" xmlns="http://www.w3.org/2000/svg" width="42.734" height="42.734" viewBox="0 0 42.734 42.734">
  <path id="Path_154" data-name="Path 154" d="M19.656,8.129a1.441,1.441,0,0,0-2.037,0l-3.726,3.726L10.167,8.129a1.441,1.441,0,1,0-2.038,2.038l3.726,3.726L8.129,17.619a1.441,1.441,0,1,0,2.038,2.038l3.726-3.726,3.726,3.726a1.441,1.441,0,1,0,2.038-2.038L15.93,13.893l3.726-3.726A1.441,1.441,0,0,0,19.656,8.129Z" transform="translate(7.474 7.474)" fill="#979797"/>
  <path id="Path_155" data-name="Path 155" d="M21.367,0A21.367,21.367,0,1,0,42.734,21.367,21.367,21.367,0,0,0,21.367,0Zm0,39.173A17.806,17.806,0,1,1,39.173,21.367,17.806,17.806,0,0,1,21.367,39.173Z" transform="translate(0 0)" fill="#979797"/>
</svg>
