<svg xmlns="http://www.w3.org/2000/svg" width="74" height="74" viewBox="0 0 74 74">
  <g id="Group_201" data-name="Group 201" transform="translate(-13919.5 -8138)">
    <g id="Group_95" data-name="Group 95" transform="translate(13919.5 8138)">
      <circle id="Ellipse_19" data-name="Ellipse 19" cx="37" cy="37" r="37" fill="#f2f2f2"/>
    </g>
    <g id="Group_110" data-name="Group 110" transform="translate(13931.834 8148.791)">
      <g id="Group_111" data-name="Group 111" transform="translate(0)">
        <path id="Path_117" data-name="Path 117" d="M1026.734,358.648c0-.9.018-1.718,0-2.535-.078-3.058-1.339-4.667-3.954-5.072a5.4,5.4,0,0,0-6.147,3.619c-.462,1.524-1.193,2.045-2.785,1.686a33.359,33.359,0,0,0-4.28-.469c-2.222-.2-2.6-.709-1.979-2.875a11.554,11.554,0,0,1,6.847-7.838,20.323,20.323,0,0,1,15.666-.337,9.275,9.275,0,0,1,6.382,8.844c.18,5.138.159,10.286.143,15.428a10.111,10.111,0,0,0,2.159,6.623c1.27,1.6,1.166,1.982-.348,3.278-1.344,1.15-2.7,2.289-4,3.487-1.05.965-2.04,1.04-3.019-.028-1.109-1.211-2.186-2.454-3.343-3.756-.659.565-1.317,1.135-1.982,1.7-3.787,3.2-8.2,3.761-12.8,2.643-4.238-1.03-6.409-4.139-7.019-8.319-1-6.875,2.553-12.356,9.245-14.278a46.749,46.749,0,0,1,5.514-1.109C1022.823,359.051,1024.642,358.895,1026.734,358.648Zm.309,5.931a12.932,12.932,0,0,0-7.387,1.157,6.451,6.451,0,0,0-2.531,8.6,3.708,3.708,0,0,0,3.365,2.028,5.575,5.575,0,0,0,5.43-4.309A58.231,58.231,0,0,0,1027.044,364.579Z" transform="translate(-997.701 -343.42)"/>
        <g id="Group_110-2" data-name="Group 110" transform="translate(0 40.273)">
          <path id="Path_118" data-name="Path 118" d="M997,389.067c.524.311,1.065.6,1.571.938a41.388,41.388,0,0,0,24,7.366,39.951,39.951,0,0,0,17.063-4.237,7.127,7.127,0,0,1,2.045-.324,6.8,6.8,0,0,1-1.124,1.962,30.131,30.131,0,0,1-37.181,1.021,73.656,73.656,0,0,1-5.827-5.14,7.71,7.71,0,0,1-.9-1.2Z" transform="translate(-996.653 -388.759)" fill="#f8981d"/>
          <path id="Path_119" data-name="Path 119" d="M1047.466,397.431c.467-1.558,1.006-3.1,1.38-4.677.4-1.67-.071-2.259-1.777-2.329-1.636-.068-3.276-.015-5.162-.015.549-.364.972-.841,1.468-.935a31.483,31.483,0,0,1,5.33-.752c2.33-.036,2.677.466,2.319,2.817A7.755,7.755,0,0,1,1047.466,397.431Z" transform="translate(-1001.676 -388.721)" fill="#f8981d"/>
        </g>
      </g>
    </g>
  </g>
</svg>
