<svg xmlns="http://www.w3.org/2000/svg" width="75" height="74" viewBox="0 0 75 74">
  <g id="Group_119" data-name="Group 119" transform="translate(-6320 -8563)">
    <g id="Group_117" data-name="Group 117" transform="translate(6320 8563)">
      <g id="Group_112" data-name="Group 112" transform="translate(0 0)">
        <ellipse id="Ellipse_19" data-name="Ellipse 19" cx="37.5" cy="37" rx="37.5" ry="37" fill="#f2f2f2"/>
      </g>
    </g>
    <g id="Group_118" data-name="Group 118" transform="translate(6327.748 8578.304)">
      <path id="Path_122" data-name="Path 122" d="M1426.108,122.889c1.05,3.657,1.05,3.657-1.26,4.355.365,1.732.7,3.494,1.11,5.237.645,2.731-.84,4.853-3.709,5.228-2.946.384-4.547-.436-5.958-3.046-1.844-3.413-3.724-6.808-5.514-10.248-.536-1.03-1.131-1.667-2.38-1.434-1.607.3-2.517-.727-3.7-1.608-3.841-2.866-2.981-6.855-2.819-10.61.089-2.061,5.034-5.613,7.157-5.56,10.657.268,21.31.235,31.782-2.034a52.384,52.384,0,0,0,9.186-3.154,6.39,6.39,0,0,0,3.913-4.789c.107-.526.943-1.032,1.553-1.293.5-.212,1.166.02,1.744-.057,1.975-.262,2.461.7,2.442,2.482-.068,6.268-.026,12.537-.027,18.806,0,5.687-.028,11.374.016,17.061.012,1.485-.394,2.292-2.074,2.325-3.112.061-3.38-.026-3.675-2.049a5.2,5.2,0,0,0-3.255-4.1,54.929,54.929,0,0,0-9.888-3.445C1436,123.96,1431.117,123.566,1426.108,122.889Zm-3.125.871q.1-.973.2-1.946l.179-.027c6.285.666,12.608,1.09,18.84,2.077,4.653.736,9.12,2.334,12.332,6.14l.946,2.987h2.7V95.31h-2.833c-.25.847-.484,1.639-.718,2.432a13.31,13.31,0,0,1-7.19,5.018,61.9,61.9,0,0,1-9.227,2.311c-5,.754-10.056,1.14-15.089,1.682-5.079-.1-10.157-.2-15.237-.27a1.6,1.6,0,0,0-1,.46,37.33,37.33,0,0,0-2.973,3.075c-1.364,1.668-1.212,6.585.017,8.372,1.6,2.325,3.477,3.971,6.576,3.43a2.665,2.665,0,0,1,.772.1l1.86,3.78c1.489,2.851,2.965,5.708,4.469,8.551a4.137,4.137,0,0,0,6.458,1.13,2.565,2.565,0,0,0,.672-1.954C1424.235,130.193,1423.583,126.981,1422.983,123.76Z" transform="translate(-1401.687 -93.833)" fill="#4e4e4f"/>
      <path id="Path_123" data-name="Path 123" d="M1456.358,112.923c4.978-.542,9.981-.928,14.926-1.682a60.69,60.69,0,0,0,9.127-2.311,13.166,13.166,0,0,0,7.112-5.018,7.124,7.124,0,0,1,.465,1.755q.049,14.319,0,28.637a6.854,6.854,0,0,1-.564,1.87c-3.178-3.806-7.6-5.4-12.2-6.14-6.166-.987-12.421-1.411-18.637-2.076Q1456.476,120.44,1456.358,112.923Z" transform="translate(-1434.53 -100.003)" fill="#d1cfc3"/>
      <path id="Path_124" data-name="Path 124" d="M1424.854,126.721q.118,7.517.235,15.034l-.178.026c-2.232-.1-4.464-.27-6.7-.263-1.694.005-3.386.24-5.079.372a2.552,2.552,0,0,0-.764-.1c-3.065.541-4.922-1.105-6.5-3.43-1.216-1.787-1.366-6.7-.017-8.372a37.153,37.153,0,0,1,2.94-3.075,1.576,1.576,0,0,1,.992-.46C1414.807,126.519,1419.831,126.624,1424.854,126.721Z" transform="translate(-1403.652 -113.801)" fill="#395797"/>
      <path id="Path_125" data-name="Path 125" d="M1536.473,132.335a6.838,6.838,0,0,0,.564-1.87q.05-14.319,0-28.637a7.137,7.137,0,0,0-.465-1.755c.231-.793.463-1.585.71-2.432h2.8v37.681h-2.672C1537.112,134.373,1536.792,133.354,1536.473,132.335Z" transform="translate(-1483.574 -96.164)" fill="#f8f7e5"/>
      <path id="Path_126" data-name="Path 126" d="M1440.63,171c.593,3.221,1.239,6.433,1.734,9.669a2.58,2.58,0,0,1-.664,1.954,4.069,4.069,0,0,1-6.389-1.13c-1.488-2.843-2.949-5.7-4.421-8.551.755-.1,1.52-.157,2.264-.313C1435.649,172.1,1438.138,171.543,1440.63,171Z" transform="translate(-1419.409 -141.07)" fill="#d0cec1"/>
      <path id="Path_127" data-name="Path 127" d="M1437.725,167.51c-2.492.546-4.981,1.105-7.477,1.629-.744.156-1.508.211-2.263.313l-1.84-3.779c1.693-.131,3.385-.366,5.079-.371,2.231-.007,4.463.167,6.7.263Q1437.822,166.537,1437.725,167.51Z" transform="translate(-1416.529 -137.583)" fill="#a9aaa6"/>
    </g>
  </g>
</svg>
