<svg xmlns="http://www.w3.org/2000/svg" width="45.013" height="36.559" viewBox="0 0 45.013 36.559">
  <g id="Icon_awesome-twitter" data-name="Icon awesome-twitter" transform="translate(0 0)">
    <path id="Icon_awesome-twitter-2" data-name="Icon awesome-twitter" d="M40.386,12.492c.029.4.029.8.029,1.2,0,12.2-9.282,26.248-26.248,26.248A26.07,26.07,0,0,1,0,35.8a19.084,19.084,0,0,0,2.228.114,18.476,18.476,0,0,0,11.453-3.942,9.242,9.242,0,0,1-8.626-6.4,11.634,11.634,0,0,0,1.742.143A9.757,9.757,0,0,0,9.225,25.4a9.227,9.227,0,0,1-7.4-9.054v-.114A9.291,9.291,0,0,0,6,17.4,9.239,9.239,0,0,1,3.142,5.066,26.223,26.223,0,0,0,22.164,14.72a10.415,10.415,0,0,1-.228-2.114A9.234,9.234,0,0,1,37.9,6.294a18.163,18.163,0,0,0,5.855-2.228A9.2,9.2,0,0,1,39.7,9.15a18.494,18.494,0,0,0,5.312-1.428,19.831,19.831,0,0,1-4.627,4.77Z" transform="translate(0 -3.381)" fill="#fb8231"/>
  </g>
</svg>
