<svg xmlns="http://www.w3.org/2000/svg" width="19.559" height="19.559" viewBox="0 0 19.559 19.559">
  <g id="Icon_feather-settings" data-name="Icon feather-settings" transform="translate(-1 -1)">
    <path id="Path_139" data-name="Path 139" d="M18.562,16.031A2.531,2.531,0,1,1,16.031,13.5,2.531,2.531,0,0,1,18.562,16.031Z" transform="translate(-5.251 -5.251)" fill="none" stroke="#fff" stroke-linecap="round" stroke-linejoin="round" stroke-width="1"/>
    <path id="Path_140" data-name="Path 140" d="M17.022,13.31a1.392,1.392,0,0,0,.278,1.535l.051.051a1.688,1.688,0,1,1-2.387,2.387l-.051-.051a1.4,1.4,0,0,0-2.379,1v.143a1.687,1.687,0,0,1-3.374,0V18.3a1.392,1.392,0,0,0-.911-1.274,1.392,1.392,0,0,0-1.535.278l-.051.051a1.688,1.688,0,1,1-2.387-2.387l.051-.051a1.4,1.4,0,0,0-1-2.379H3.187a1.687,1.687,0,1,1,0-3.374h.076a1.392,1.392,0,0,0,1.274-.911,1.392,1.392,0,0,0-.278-1.535l-.051-.051A1.688,1.688,0,1,1,6.6,4.275l.051.051A1.392,1.392,0,0,0,8.181,4.6h.067a1.392,1.392,0,0,0,.844-1.274V3.187a1.687,1.687,0,1,1,3.374,0v.076a1.4,1.4,0,0,0,2.379,1l.051-.051A1.688,1.688,0,1,1,17.284,6.6l-.051.051a1.392,1.392,0,0,0-.278,1.535v.067a1.392,1.392,0,0,0,1.274.844h.143a1.687,1.687,0,0,1,0,3.374H18.3a1.392,1.392,0,0,0-1.274.844Z" fill="none" stroke="#fff" stroke-linecap="round" stroke-linejoin="round" stroke-width="1"/>
  </g>
</svg>
