<svg id="Layer_35" enable-background="new 0 0 62 62" height="512" viewBox="0 0 62 62" width="512" xmlns="http://www.w3.org/2000/svg"><g><g><g><path d="m9.734 43.637c1.105-2.729 3.386-4.904 6.325-5.809l4.529-1.393c.839-.259 1.412-1.036 1.412-1.914 0-.466 0-.862 0-.862 0-.4-.238-.761-.606-.919-3.878-1.662-6.393-5.475-6.393-9.695l-.001-10.045c0 1.105.895 2 2 2h.754c.164 0 .326-.02.485-.06l3.761-.94c1.921 0 3.763-.763 5.121-2.121l.172-.172c.453-.453 1.067-.707 1.707-.707s1.254.254 1.707.707l.293.293.51-.51c.314-.314.74-.49 1.183-.49.768 0 1.437.523 1.624 1.268l.304 1.217c.072.286.203.545.378.765l.001 8.793c0 4.22-2.514 8.034-6.393 9.696l-.002.001c-.367.158-.605.519-.605.92v.864c0 .878.572 1.653 1.411 1.911 1.128.347 2.802.862 4.53 1.394.021.007.043.013.064.02l.011.009c.075-1.59 1.376-2.858 2.984-2.858h2.477l.023-.366-.295-.315c-.777-.83-1.205-1.915-1.205-3.053 0-1.328.314-2.658.908-3.845l1.297-2.595c1.174-2.348 1.795-4.977 1.795-7.603v-.223c0-9.374-7.626-17-17-17s-17 7.626-17 17v.223c0 2.624.621 5.253 1.795 7.603l1.298 2.594c.594 1.188.907 2.518.907 3.846 0 1.399-.668 2.735-1.788 3.575-1.385 1.039-2.212 2.694-2.212 4.425v.414c0 1.369.519 2.671 1.46 3.667z" fill="#f0bc5e"/></g></g><g><circle cx="30" cy="18" r="1"/><circle cx="20" cy="18" r="1"/><path d="m24.447 22.895 1.106-.553c.985-.494 1.387-1.697.894-2.683l-.447-.895v-1.764h-2v2c0 .155.036.309.105.447l.553 1.105-1.105.553z"/><path d="m30 25v-1h-10v1c0 2.757 2.243 5 5 5s5-2.243 5-5zm-7.829 1h5.658c-.413 1.164-1.525 2-2.829 2s-2.416-.836-2.829-2z"/><path d="m60 52h-17v-2c1.103 0 2-.897 2-2v-4h.528c2.567 0 5.136.569 7.472 1.638v.362c0 1.103.897 2 2 2h2c1.103 0 2-.897 2-2v-14c0-1.103-.897-2-2-2h-2c-1.103 0-2 .897-2 2v.362c-2.336 1.069-4.904 1.638-7.472 1.638h-8.528c-1.703 0-3.15 1.074-3.726 2.576l-3.57-1.098c-.421-.129-.704-.513-.704-.955l.001-.865c4.253-1.822 7-5.989 7-10.615l-.001-7.1c.183.035.37.057.562.057h1.438v-2h-1.438c-.46 0-.858-.312-.97-.757l-.305-1.218c-.298-1.192-1.365-2.025-2.594-2.025-.638 0-1.24.221-1.721.626-1.3-.923-3.232-.778-4.386.374l-.172.172c-1.18 1.179-2.747 1.828-4.414 1.828-.552 0-1-.449-1-1s.448-1 1-1h1v-2h-1c-1.654 0-3 1.346-3 3 0 .59.177 1.137.472 1.601l-1.474.369c-.08.02-.162.03-.244.03h-.754c-.552 0-1-.449-1-1s.448-1 1-1h1v-2h-1c-1.654 0-3 1.346-3 3v10.045c.001 4.626 2.749 8.792 7 10.614v.862c0 .443-.284.828-.706.958l-4.528 1.394c-4.645 1.428-7.766 5.653-7.766 10.513v4.614h-6c-1.103 0-2 .897-2 2v2c0 1.103.897 2 2 2h10.685c1.126 2.361 3.53 4 6.315 4s5.188-1.639 6.315-4h34.685c1.103 0 2-.897 2-2v-2c0-1.103-.897-2-2-2zm-5-20h2v14l-2 .001zm-18 12h1c.552 0 1 .449 1 1s-.448 1-1 1h-1zm2 3.829c.04-.014.076-.035.115-.051.257.951.965 1.71 1.885 2.038v2.184h-2zm4.001.171h-1.001c-.552 0-1-.449-1-1v-2c0-.551.448-1 1-1h1zm9.999-13.462v8.924c-2.368-.955-4.92-1.462-7.472-1.462h-2.528-1-1v-6h4.528c2.552 0 5.104-.507 7.472-1.462zm-18 3.462c0-1.103.897-2 2-2h2v6h-1-1c-1.103 0-2-.897-2-2zm-14.118-.609c1.266-.391 2.118-1.543 2.118-2.87v-.864c-.002-.8-.478-1.52-1.213-1.835-3.515-1.507-5.786-4.952-5.787-8.776v-7.23c.314.112.648.184 1 .184h.754c.244 0 .488-.03.728-.089l3.671-.918c2.144-.039 4.154-.886 5.675-2.407l.172-.171c.535-.535 1.465-.535 2 0l1 1 1.218-1.217c.342-.344 1.013-.161 1.129.313l.305 1.218c.074.297.197.57.349.822l.001 8.494c0 3.825-2.271 7.271-5.79 8.778-.737.317-1.213 1.04-1.211 1.838v.863c0 1.325.851 2.477 2.116 2.867l2.873.884c-.715 1.013-1.753 1.761-2.97 2.109-1.619.462-3.037 1.46-4.02 2.823-.982-1.363-2.4-2.361-4.02-2.823-1.218-.348-2.256-1.096-2.97-2.109zm-10.882 9.995c0-3.862 2.413-7.228 6.034-8.49.969 1.653 2.528 2.876 4.398 3.41 1.251.357 2.337 1.15 3.06 2.233l.677 1.015c.185.279.497.446.831.446s.646-.167.832-.445l.677-1.015c.723-1.083 1.809-1.876 3.06-2.233 1.344-.384 2.53-1.124 3.45-2.124.066 1.426.877 2.649 2.057 3.303-.045.164-.076.335-.076.514v2c0 1.103.897 2 2 2v4h-11.685c-1.126-2.361-3.53-4-6.315-4s-5.188 1.639-6.315 4h-2.685zm-8 8.614v-2h10.08c-.047.328-.08.66-.08 1s.033.672.08 1zm17 4c-2.757 0-5-2.243-5-5s2.243-5 5-5 5 2.243 5 5-2.243 5-5 5zm41-4h-34.08c.047-.328.08-.66.08-1s-.033-.672-.08-1h13.08 2 19z"/><path d="m16 52h2v6h-2z"/><path d="m20 52h2v6h-2z"/></g></g></svg>