<svg xmlns="http://www.w3.org/2000/svg" width="19.022" height="22.827" viewBox="0 0 19.022 22.827">
  <g id="fi-rr-trash" transform="translate(0)">
    <path id="Path_150" data-name="Path 150" d="M20.071,3.8H17.123A4.764,4.764,0,0,0,12.462,0h-1.9A4.764,4.764,0,0,0,5.9,3.8H2.951a.951.951,0,0,0,0,1.9H3.9V18.071a4.761,4.761,0,0,0,4.756,4.756h5.707a4.761,4.761,0,0,0,4.756-4.756V5.707h.951a.951.951,0,0,0,0-1.9ZM10.56,1.9h1.9a2.859,2.859,0,0,1,2.691,1.9H7.869A2.859,2.859,0,0,1,10.56,1.9Zm6.658,16.169a2.853,2.853,0,0,1-2.853,2.853H8.658A2.853,2.853,0,0,1,5.8,18.071V5.707H17.218Z" transform="translate(-2)" fill="#ff0303"/>
    <path id="Path_151" data-name="Path 151" d="M9.951,17.609a.951.951,0,0,0,.951-.951V10.951a.951.951,0,1,0-1.9,0v5.707A.951.951,0,0,0,9.951,17.609Z" transform="translate(-2.342 -0.489)" fill="#ff0303"/>
    <path id="Path_152" data-name="Path 152" d="M13.951,17.609a.951.951,0,0,0,.951-.951V10.951a.951.951,0,1,0-1.9,0v5.707A.951.951,0,0,0,13.951,17.609Z" transform="translate(-2.538 -0.489)" fill="#ff0303"/>
  </g>
</svg>
