<svg xmlns="http://www.w3.org/2000/svg" width="18.401" height="16.883" viewBox="0 0 18.401 16.883">
  <path id="Icon_material-favorite-border" data-name="Icon material-favorite-border" d="M16.341,4.5A5.51,5.51,0,0,0,12.2,6.423,5.51,5.51,0,0,0,8.06,4.5,5.011,5.011,0,0,0,3,9.56c0,3.478,3.128,6.312,7.866,10.617L12.2,21.383l1.334-1.214c4.738-4.3,7.866-7.13,7.866-10.608A5.011,5.011,0,0,0,16.341,4.5ZM12.293,18.807,12.2,18.9l-.092-.092C7.729,14.841,4.84,12.219,4.84,9.56A3.144,3.144,0,0,1,8.06,6.34a3.6,3.6,0,0,1,3.285,2.171h1.721A3.574,3.574,0,0,1,16.341,6.34a3.144,3.144,0,0,1,3.22,3.22C19.561,12.219,16.672,14.841,12.293,18.807Z" transform="translate(-3 -4.5)" fill="#ff925a"/>
</svg>
