<svg xmlns="http://www.w3.org/2000/svg" width="16.723" height="16.723" viewBox="0 0 16.723 16.723">
  <path id="Icon_awesome-layer-group" data-name="Icon awesome-layer-group" d="M.405,4.834,8.013,8.286a.836.836,0,0,0,.7,0l7.608-3.451a.73.73,0,0,0,0-1.307L8.709.075a.836.836,0,0,0-.7,0L.405,3.527a.73.73,0,0,0,0,1.308ZM16.317,7.718l-1.9-.86L9.141,9.251a1.883,1.883,0,0,1-1.559,0L2.3,6.858l-1.9.86a.729.729,0,0,0,0,1.306l7.608,3.449a.839.839,0,0,0,.7,0l7.609-3.449a.729.729,0,0,0,0-1.306Zm0,4.174-1.89-.857-5.287,2.4a1.883,1.883,0,0,1-1.559,0L2.3,11.035l-1.89.857a.729.729,0,0,0,0,1.306l7.608,3.449a.839.839,0,0,0,.7,0L16.317,13.2a.729.729,0,0,0,0-1.306Z" transform="translate(0 0.001)" fill="#6e6e6e"/>
</svg>
