<svg id="fi-rr-share" xmlns="http://www.w3.org/2000/svg" width="26.445" height="26.416" viewBox="0 0 26.445 26.416">
  <path id="fi-rr-share-2" data-name="fi-rr-share" d="M21.28,16.142a5.129,5.129,0,0,0-4.225,2.228L9.892,15.135A5.034,5.034,0,0,0,9.9,11.3l7.154-3.251a5.129,5.129,0,1,0-.91-2.909A5.1,5.1,0,0,0,16.229,6L8.624,9.457a5.138,5.138,0,1,0-.017,7.514l7.625,3.443a5.213,5.213,0,0,0-.087.864,5.136,5.136,0,1,0,5.136-5.135Zm0-13.941a2.935,2.935,0,1,1-2.934,2.935A2.935,2.935,0,0,1,21.28,2.2ZM5.139,16.142a2.935,2.935,0,1,1,2.934-2.935,2.935,2.935,0,0,1-2.934,2.935ZM21.28,24.213a2.935,2.935,0,1,1,2.935-2.935,2.935,2.935,0,0,1-2.935,2.935Z" transform="translate(0.027 0.001)" fill="#979797"/>
</svg>
