<svg id="fi-rr-trash" xmlns="http://www.w3.org/2000/svg" width="22.012" height="26.414" viewBox="0 0 22.012 26.414">
  <path id="Path_150" data-name="Path 150" d="M22.911,4.4H19.5A5.513,5.513,0,0,0,14.107,0h-2.2A5.513,5.513,0,0,0,6.512,4.4H3.1a1.1,1.1,0,0,0,0,2.2H4.2V20.911a5.51,5.51,0,0,0,5.5,5.5h6.6a5.51,5.51,0,0,0,5.5-5.5V6.6h1.1a1.1,1.1,0,0,0,0-2.2ZM11.905,2.2h2.2A3.308,3.308,0,0,1,17.22,4.4H8.792a3.308,3.308,0,0,1,3.114-2.2Zm7.7,18.71a3.3,3.3,0,0,1-3.3,3.3H9.7a3.3,3.3,0,0,1-3.3-3.3V6.6H19.61Z" transform="translate(-2)" fill="#979797"/>
  <path id="Path_151" data-name="Path 151" d="M10.1,18.8a1.1,1.1,0,0,0,1.1-1.1V11.1a1.1,1.1,0,0,0-2.2,0v6.6A1.1,1.1,0,0,0,10.1,18.8Z" transform="translate(-1.296 1.006)" fill="#979797"/>
  <path id="Path_152" data-name="Path 152" d="M14.1,18.8a1.1,1.1,0,0,0,1.1-1.1V11.1a1.1,1.1,0,0,0-2.2,0v6.6A1.1,1.1,0,0,0,14.1,18.8Z" transform="translate(-0.893 1.006)" fill="#979797"/>
</svg>
