<svg id="Group_171" data-name="Group 171" xmlns="http://www.w3.org/2000/svg" width="6.613" height="13.23" viewBox="0 0 6.613 13.23">
  <path id="Icon_ionic-ios-arrow-back" data-name="Icon ionic-ios-arrow-back" d="M1.14,3.306l2.5-2.5A.473.473,0,0,0,2.973.138L.138,2.971a.472.472,0,0,0-.014.652L2.971,6.475a.473.473,0,1,0,.669-.667Z" transform="translate(6.613 0) rotate(90)"/>
  <path id="Icon_ionic-ios-arrow-back-2" data-name="Icon ionic-ios-arrow-back" d="M1.14,3.306l2.5-2.5A.473.473,0,0,0,2.973.138L.138,2.971a.472.472,0,0,0-.014.652L2.971,6.475a.473.473,0,1,0,.669-.667Z" transform="translate(0 13.23) rotate(-90)"/>
</svg>
