<svg id="fi-rr-cross-circle" xmlns="http://www.w3.org/2000/svg" width="24" height="24" viewBox="0 0 24 24">
  <path id="Path_154" data-name="Path 154" d="M13.756,7.921a.729.729,0,0,0-1.031,0L10.838,9.807,8.952,7.921A.729.729,0,1,0,7.921,8.952l1.886,1.886L7.921,12.725a.729.729,0,1,0,1.032,1.032l1.886-1.886,1.886,1.886a.729.729,0,1,0,1.032-1.032L11.87,10.839l1.886-1.886A.729.729,0,0,0,13.756,7.921Z" transform="translate(1.161 1.161)" fill="#979797"/>
  <path id="Path_155" data-name="Path 155" d="M12,0A12,12,0,1,0,24,12,12,12,0,0,0,12,0Zm0,22A10,10,0,1,1,22,12,10,10,0,0,1,12,22Z" transform="translate(0 0)" fill="#979797"/>
</svg>
