<?xml version="1.0" encoding="utf-8"?>
<!-- Generator: Adobe Illustrator 25.2.1, SVG Export Plug-In . SVG Version: 6.00 Build 0)  -->
<svg version="1.1" id="Layer_1" xmlns="http://www.w3.org/2000/svg" xmlns:xlink="http://www.w3.org/1999/xlink" x="0px" y="0px"
	 viewBox="0 0 512 512" style="enable-background:new 0 0 512 512;" xml:space="preserve">
<style type="text/css">
	.st0{fill:#010101;}
</style>
<g>
	<path class="st0" d="M432.5,512h-353c-23.4,0-42.4-19-42.4-42.4V42.4C37.1,19,56.1,0,79.5,0h235.9c14.3,0,28.1,5.9,38,16.3
		l107.1,113c9.3,9.7,14.3,22.5,14.3,36v304.3C474.9,493,455.9,512,432.5,512z M79.5,32.6c-5.4,0-9.8,4.4-9.8,9.8v427.2
		c0,5.4,4.4,9.8,9.8,9.8h353c5.4,0,9.8-4.4,9.8-9.8V165.3c0-5.1-1.9-9.9-5.4-13.6l-107.1-113c-3.7-3.9-9-6.2-14.3-6.2H79.5z"/>
</g>
</svg>
