<?xml version="1.0" encoding="utf-8"?>
<!-- Generator: Adobe Illustrator 25.2.1, SVG Export Plug-In . SVG Version: 6.00 Build 0)  -->
<svg version="1.1" id="Layer_1" xmlns="http://www.w3.org/2000/svg" xmlns:xlink="http://www.w3.org/1999/xlink" x="0px" y="0px"
	 viewBox="0 0 512 512" style="enable-background:new 0 0 512 512;" xml:space="preserve">
<style type="text/css">
	.st0{fill:#010101;}
</style>
<g>
	<g>
		<path class="st0" d="M52.2,483.5c-3,0-5.9-1.1-8.1-3.1c-3.3-2.9-4.8-7.3-4-11.6l24.3-131.5c-0.3-18.7,7.1-39,20.7-55L301,29
			C315.3,12.2,335.2,2,357.1,0.3c22-1.8,43.3,5.2,60,19.4l26,22.2c16.8,14.3,26.9,34.2,28.7,56.2c1.7,21.9-5.2,43.3-19.4,60
			L237.1,410.8c-13.7,16.1-32.7,26.7-53.6,29.8L56.1,482.9C54.8,483.3,53.5,483.5,52.2,483.5z M363.8,24.8c-1.6,0-3.1,0.1-4.7,0.2
			c-15.3,1.2-29.3,8.3-39.3,20.1L104,298.4c-9.8,11.4-15.1,26-15,41.1L68.2,452.7l108.5-36c0.7-0.2,1.5-0.4,2.2-0.5
			c15.3-2.1,29.3-9.7,39.3-21.5L433.6,142c10-11.7,14.8-26.6,13.6-41.9c-1.2-15.3-8.4-29.3-20.1-39.2l-26-22.2
			C390.5,29.6,377.4,24.8,363.8,24.8z"/>
	</g>
	<g>
		<path class="st0" d="M255,512H133.6c-6.9,0-12.4-5.5-12.4-12.4c0-6.9,5.5-12.4,12.4-12.4H255c6.9,0,12.4,5.5,12.4,12.4
			C267.4,506.5,261.8,512,255,512z"/>
	</g>
</g>
</svg>
