<svg id="_006-dribbble" data-name="006-dribbble" xmlns="http://www.w3.org/2000/svg" width="26.504" height="26.504" viewBox="0 0 26.504 26.504">
  <path id="Path_149" data-name="Path 149" d="M13.252,0A13.252,13.252,0,1,0,26.5,13.253,13.252,13.252,0,0,0,13.252,0Zm8.7,6.414a11.016,11.016,0,0,1,2.365,6.527,23.512,23.512,0,0,0-7.753-.186q-.421-.967-.866-1.877A15.993,15.993,0,0,0,21.948,6.415ZM20.423,4.831a13.989,13.989,0,0,1-5.736,4.085A56.763,56.763,0,0,0,10.643,2.5a11.026,11.026,0,0,1,9.78,2.334ZM8.494,3.26a54.3,54.3,0,0,1,4.094,6.358A39.145,39.145,0,0,1,2.481,10.712,11.11,11.11,0,0,1,8.494,3.26ZM2.183,13.252l.009-.358h.06A40.728,40.728,0,0,0,13.623,11.6q.393.8.771,1.642a17.258,17.258,0,0,0-9.473,7.286A11.017,11.017,0,0,1,2.183,13.252Zm4.352,8.79a15.205,15.205,0,0,1,8.71-6.769,37.814,37.814,0,0,1,2.225,8.211A11.031,11.031,0,0,1,6.535,22.042Zm12.971.34a40.343,40.343,0,0,0-2.089-7.539,21.941,21.941,0,0,1,6.744.288A11.092,11.092,0,0,1,19.505,22.381Z" transform="translate(0 -0.001)" fill="#fff"/>
</svg>
