<svg id="_003-facebook" data-name="003-facebook" xmlns="http://www.w3.org/2000/svg" width="33.018" height="33.018" viewBox="0 0 33.018 33.018">
  <path id="Path_143" data-name="Path 143" d="M28.891,0H4.127A4.131,4.131,0,0,0,0,4.127V28.891a4.131,4.131,0,0,0,4.127,4.127H28.891a4.131,4.131,0,0,0,4.127-4.127V4.127A4.131,4.131,0,0,0,28.891,0Z" transform="translate(0 0)" fill="#fff"/>
  <path id="Path_144" data-name="Path 144" d="M208.384,106.922h-5.461v-4.369c0-1.206.979-1.092,2.184-1.092h2.185V96h-4.369a6.553,6.553,0,0,0-6.553,6.553v4.369H192v5.461h4.369V124.4h6.553V112.384H206.2Z" transform="translate(-180.258 -91.381)" fill="#498ed3"/>
</svg>
