<svg id="_002-instagram" data-name="002-instagram" xmlns="http://www.w3.org/2000/svg" width="33.018" height="33.018" viewBox="0 0 33.018 33.018">
  <path id="Path_141" data-name="Path 141" d="M23.182,0H9.836A9.847,9.847,0,0,0,0,9.836V23.182a9.847,9.847,0,0,0,9.836,9.836H23.182a9.847,9.847,0,0,0,9.836-9.836V9.836A9.847,9.847,0,0,0,23.182,0ZM29.7,23.182A6.515,6.515,0,0,1,23.182,29.7H9.836a6.515,6.515,0,0,1-6.515-6.515V9.836A6.515,6.515,0,0,1,9.836,3.322H23.182A6.515,6.515,0,0,1,29.7,9.836V23.182Z" fill="#fff"/>
  <path id="Path_142" data-name="Path 142" d="M143.028,133a10.028,10.028,0,1,0,10.028,10.028A10.039,10.039,0,0,0,143.028,133Zm0,16.156a6.128,6.128,0,1,1,6.127-6.128A6.127,6.127,0,0,1,143.028,149.156Z" transform="translate(-126.519 -126.519)" fill="#fff"/>
  <circle id="Ellipse_37" data-name="Ellipse 37" cx="1.664" cy="1.664" r="1.664" transform="translate(23.627 6.145)" fill="#fff"/>
</svg>
