<svg xmlns="http://www.w3.org/2000/svg" width="33.018" height="33.018" viewBox="0 0 33.018 33.018">
  <path id="_005-linkedin" data-name="005-linkedin" d="M30.031,0H2.987A2.987,2.987,0,0,0,0,2.987V30.031a2.987,2.987,0,0,0,2.987,2.987H30.031a2.987,2.987,0,0,0,2.987-2.987V2.987A2.987,2.987,0,0,0,30.031,0ZM10.217,28.51a.869.869,0,0,1-.869.869h-3.7a.869.869,0,0,1-.869-.869V13a.869.869,0,0,1,.869-.869h3.7a.869.869,0,0,1,.869.869ZM7.5,10.669a3.515,3.515,0,1,1,3.515-3.515A3.515,3.515,0,0,1,7.5,10.669ZM29.553,28.58a.8.8,0,0,1-.8.8h-3.97a.8.8,0,0,1-.8-.8V21.3c0-1.085.318-4.756-2.836-4.756-2.447,0-2.943,2.512-3.043,3.64V28.58a.8.8,0,0,1-.8.8h-3.84a.8.8,0,0,1-.8-.8V12.93a.8.8,0,0,1,.8-.8h3.84a.8.8,0,0,1,.8.8v1.353c.907-1.362,2.256-2.413,5.127-2.413,6.357,0,6.321,5.939,6.321,9.2V28.58Z" fill="#fff"/>
</svg>
