<svg xmlns="http://www.w3.org/2000/svg" width="26.919" height="26.919" viewBox="0 0 26.919 26.919">
  <path id="fi-sr-comment-alt" d="M22.433,0H4.487A4.487,4.487,0,0,0,0,4.487v13.46a4.487,4.487,0,0,0,4.487,4.487H7.739l4.992,4.221a1.122,1.122,0,0,0,1.449,0l5-4.221h3.253a4.487,4.487,0,0,0,4.487-4.487V4.487A4.487,4.487,0,0,0,22.433,0ZM7.851,5.608H13.46a1.122,1.122,0,0,1,0,2.243H7.851a1.122,1.122,0,0,1,0-2.243ZM19.068,16.824H7.851a1.122,1.122,0,0,1,0-2.243H19.068a1.122,1.122,0,1,1,0,2.243Zm0-4.487H7.851a1.122,1.122,0,1,1,0-2.243H19.068a1.122,1.122,0,1,1,0,2.243Z" fill="#fff"/>
</svg>
