<svg height="496pt" viewBox="0 0 496 496" width="496pt" xmlns="http://www.w3.org/2000/svg"><g fill="#f0bc5e"><path d="m80 40h104v72h-104zm0 0"/><path d="m256 200h128v192h-128zm0 0"/><path d="m16 216v160c0 22.054688 17.945312 40 40 40h128c22.054688 0 40-17.945312 40-40v-160zm0 0"/></g><path d="m472 176c-2.832031 0-5.503906.585938-8.03125 1.480469l.03125-25.480469c0-8.734375-3.632812-17.191406-9.96875-23.207031-4.023438-3.816407-8.832031-6.265625-14.03125-7.59375v-44.511719l-76.6875-76.6875h-315.3125v160h-24c-13.230469 0-24 10.769531-24 24v16c0 13.230469 10.769531 24 24 24h192c13.230469 0 24-10.769531 24-24v-16c0-13.230469-10.769531-24-24-24h-152v-144h288v72h72v33.039062c-13.863281 3.6875-24 16.800782-24 32.320313v214.640625l14.304688 58.183594c1.335937 5.359375 4.984374 9.617187 9.695312 11.921875v41.894531h-360v-64h-8c-2.734375 0-5.414062-.28125-8-.808594v80.808594h392v-57.894531c4.710938-2.304688 8.359375-6.5625 9.695312-11.929688l14.066407-56.238281.183593-169.9375h.054688c0-4.414062 3.585938-8 8-8s8 3.585938 8 8v88h16v-88c0-13.230469-10.769531-24-24-24zm-248 8v16c0 4.414062-3.585938 8-8 8h-192c-4.414062 0-8-3.585938-8-8v-16c0-4.414062 3.585938-8 8-8h8v16h16v-16h16v16h16v-16h16v16h16v-16h16v16h16v-16h16v16h16v-16h16v16h16v-16h8c4.414062 0 8 3.585938 8 8zm144-156.6875 44.6875 44.6875h-44.6875zm63.136719 108.710938c4.429687-.230469 8.664062 1.3125 11.878906 4.375 3.207031 3.058593 4.984375 7.167968 4.984375 11.601562v48h-32v-46.640625c0-9.128906 6.792969-16.894531 15.136719-17.335937zm-15.136719 223.976562v-144h32v144zm18.175781 62.296875c-.496093 2-3.855469 1.992187-4.359375.007813l-11.570312-46.304688h27.515625zm0 0"/><path d="m120 384c39.703125 0 72-32.296875 72-72s-32.296875-72-72-72-72 32.296875-72 72 32.296875 72 72 72zm0-128c30.871094 0 56 25.128906 56 56s-25.128906 56-56 56-56-25.128906-56-56 25.128906-56 56-56zm0 0"/><path d="m112 352h16v-32h32v-16h-32v-32h-16v32h-32v16h32zm0 0"/><path d="m80 32h104v16h-104zm0 0"/><path d="m80 64h104v16h-104zm0 0"/><path d="m256 192h128v16h-128zm0 0"/><path d="m256 224h128v16h-128zm0 0"/><path d="m256 256h128v16h-128zm0 0"/><path d="m256 288h128v16h-128zm0 0"/><path d="m256 320h128v16h-128zm0 0"/><path d="m256 352h128v16h-128zm0 0"/><path d="m256 384h128v16h-128zm0 0"/><path d="m80 96h72v16h-72zm0 0"/><path d="m168 96h16v16h-16zm0 0"/></svg>