<svg xmlns="http://www.w3.org/2000/svg" width="18.902" height="23.102" viewBox="0 0 18.902 23.102">
  <path id="Icon_material-content-paste" data-name="Icon material-content-paste" d="M21.3,2.1H16.912a3.138,3.138,0,0,0-5.923,0H6.6A2.106,2.106,0,0,0,4.5,4.2V21a2.106,2.106,0,0,0,2.1,2.1H21.3A2.106,2.106,0,0,0,23.4,21V4.2A2.106,2.106,0,0,0,21.3,2.1Zm-7.351,0A1.05,1.05,0,1,1,12.9,3.15,1.053,1.053,0,0,1,13.951,2.1ZM21.3,21H6.6V4.2H8.7v3.15H19.2V4.2h2.1Z" transform="translate(-4.5)" fill="#61a1f5"/>
</svg>
