<svg id="_002-visa" data-name="002-visa" xmlns="http://www.w3.org/2000/svg" width="38.697" height="11.732" viewBox="0 0 38.697 11.732">
  <path id="Path_179" data-name="Path 179" d="M184.8,191.456l1.965-11.056h3.071l-1.9,11.056Z" transform="translate(-170.611 -180.031)" fill="#0035a0"/>
  <path id="Path_180" data-name="Path 180" d="M184.8,191.456l2.518-11.056h2.518l-1.9,11.056Z" transform="translate(-170.611 -180.031)" fill="#0035a0"/>
  <path id="Path_181" data-name="Path 181" d="M257.4,176.091a7.791,7.791,0,0,0-2.825-.491c-3.071,0-5.282,1.536-5.282,3.747,0,1.658,1.536,2.518,2.764,3.071s1.6.921,1.6,1.413c0,.737-.983,1.106-1.843,1.106a6.676,6.676,0,0,1-2.948-.614l-.43-.184-.43,2.518a9.959,9.959,0,0,0,3.5.614c3.255,0,5.405-1.536,5.405-3.87,0-1.29-.8-2.273-2.641-3.071-1.106-.553-1.781-.86-1.781-1.413,0-.491.553-.983,1.781-.983a5.633,5.633,0,0,1,2.334.43l.307.123.491-2.4Z" transform="translate(-228.959 -175.6)" fill="#0035a0"/>
  <path id="Path_182" data-name="Path 182" d="M257.4,176.091a7.791,7.791,0,0,0-2.825-.491c-3.071,0-4.73,1.536-4.73,3.747a3.211,3.211,0,0,0,2.211,3.071c1.229.553,1.6.921,1.6,1.413,0,.737-.983,1.106-1.843,1.106a6.676,6.676,0,0,1-2.948-.614l-.43-.184-.43,2.518a9.959,9.959,0,0,0,3.5.614c3.255,0,5.405-1.536,5.405-3.87,0-1.29-.8-2.273-2.641-3.071-1.106-.553-1.781-.86-1.781-1.413,0-.491.553-.983,1.781-.983a5.633,5.633,0,0,1,2.334.43l.307.123.491-2.4Z" transform="translate(-228.959 -175.6)" fill="#0035a0"/>
  <path id="Path_183" data-name="Path 183" d="M364.6,180.4c-.737,0-1.29.061-1.6.8L358.4,191.456h3.317l.614-1.843h3.931l.369,1.843h2.948L367,180.4Zm-1.413,7.371c.184-.553,1.229-3.255,1.229-3.255s.246-.676.43-1.106l.184,1.044s.614,2.764.737,3.378h-2.58Z" transform="translate(-330.883 -180.031)" fill="#0035a0"/>
  <path id="Path_184" data-name="Path 184" d="M365.341,180.4c-.737,0-1.29.061-1.6.8L358.4,191.456h3.317l.614-1.843h3.931l.369,1.843h2.948L367,180.4Zm-2.15,7.371c.246-.614,1.228-3.255,1.228-3.255s.246-.676.43-1.106l.184,1.044s.614,2.764.737,3.378h-2.58Z" transform="translate(-330.883 -180.031)" fill="#0035a0"/>
  <path id="Path_185" data-name="Path 185" d="M55.807,188.878l-.307-1.6a8.9,8.9,0,0,0-4.3-4.852l2.764,9.828h3.317L62.256,181.2H58.939Z" transform="translate(-47.269 -180.77)" fill="#0035a0"/>
  <path id="Path_186" data-name="Path 186" d="M55.807,188.878l-.307-1.6a8.9,8.9,0,0,0-4.3-4.852l2.764,9.828h3.317L62.256,181.2h-2.7Z" transform="translate(-47.269 -180.77)" fill="#0035a0"/>
  <path id="Path_187" data-name="Path 187" d="M0,180.4l.553.123c3.931.921,6.634,3.255,7.678,6.019l-1.106-5.221c-.184-.737-.737-.921-1.413-.921Z" transform="translate(0 -180.031)" fill="#0035a0"/>
  <path id="Path_188" data-name="Path 188" d="M0,180.4H0c3.931.921,7.186,3.317,8.231,6.081L7.186,182.12a1.5,1.5,0,0,0-1.474-1.167Z" transform="translate(0 -180.031)" fill="#0035a0"/>
  <path id="Path_189" data-name="Path 189" d="M0,180.4H0c3.931.921,7.186,3.317,8.231,6.081l-.737-2.4A2.166,2.166,0,0,0,6.2,182.3Z" transform="translate(0 -180.031)" fill="#0035a0"/>
  <g id="Group_210" data-name="Group 210" transform="translate(3.992 1.597)">
    <path id="Path_190" data-name="Path 190" d="M59.616,202.542l-2.088-2.088-.983,2.334-.246-1.536A8.9,8.9,0,0,0,52,196.4l2.764,9.828h3.317Z" transform="translate(-52 -196.4)" fill="#0035a0"/>
    <path id="Path_191" data-name="Path 191" d="M187.933,291.9l-2.641-2.7-.491,2.7Z" transform="translate(-174.604 -282.075)" fill="#0035a0"/>
    <path id="Path_192" data-name="Path 192" d="M253.344,274.8h0c.246.246.368.43.307.676,0,.737-.983,1.106-1.843,1.106a6.676,6.676,0,0,1-2.948-.614l-.43-.184L248,278.3a9.958,9.958,0,0,0,3.5.614,6.082,6.082,0,0,0,4.484-1.536Z" transform="translate(-232.951 -268.781)" fill="#0035a0"/>
    <path id="Path_193" data-name="Path 193" d="M364,227.646h2.887l.614-1.843h3.931l.369,1.843h2.948l-1.044-4.484-3.685-3.562.184.983s.614,2.764.737,3.378h-2.58c.246-.614,1.228-3.255,1.228-3.255s.246-.676.43-1.106" transform="translate(-340.045 -217.819)" fill="#0035a0"/>
  </g>
</svg>
