<svg id="_003-american-express" data-name="003-american-express" xmlns="http://www.w3.org/2000/svg" width="37.046" height="12.878" viewBox="0 0 37.046 12.878">
  <path id="Path_194" data-name="Path 194" d="M43.2,186.846h1.294l-.647-1.646Z" transform="translate(-40.025 -183.671)" fill="#2fabf7"/>
  <path id="Path_195" data-name="Path 195" d="M240.847,187.659a1.146,1.146,0,0,0-.47-.059H239.2v.941h1.176a1.147,1.147,0,0,0,.47-.059.458.458,0,0,0,.176-.412A.327.327,0,0,0,240.847,187.659Z" transform="translate(-221.618 -185.895)" fill="#228fe0"/>
  <path id="Path_196" data-name="Path 196" d="M31.813,164.4v.706l-.353-.706H28.7v.706l-.353-.706H24.58a3.58,3.58,0,0,0-1.646.353V164.4H20.287v.353a1.7,1.7,0,0,0-1.117-.353H9.7l-.647,1.47-.647-1.47h-3v.706l-.353-.706H2.529l-1.176,2.764L0,170.222H3l.353-.941h.823l.353.941H7.938v-.706l.294.706H9.938l.294-.706v.706h8.174v-1.529h.118c.118,0,.118,0,.118.176v1.294h4.234v-.353a3.522,3.522,0,0,0,1.588.353h1.764l.353-.941H27.4l.353.941h3.411v-.882l.529.882h2.764V164.4Zm-19.876,4.939h-1v-3.234l-1.411,3.234H8.644l-1.411-3.234v3.234h-2l-.412-.882h-2l-.353.941H1.352l1.764-4.175h1.47l1.646,3.94v-3.94H7.821l1.294,2.823,1.176-2.823h1.646Zm4-3.234H13.642v.764h2.235v.823H13.642v.823h2.293v.882H12.643v-4.175h3.293Zm4.41,1.705a1.471,1.471,0,0,1,.176.764v.823h-1v-.529a1.4,1.4,0,0,0-.176-.823c-.176-.176-.353-.176-.706-.176H17.582V169.4h-1v-4.175h2.235a2.254,2.254,0,0,1,1.176.176,1,1,0,0,1,.47.941,1.171,1.171,0,0,1-.706,1.117A1.118,1.118,0,0,1,20.346,167.811Zm1.764,1.529h-1v-4.175h1Zm11.584,0H32.283L30.4,166.223v3.117h-2l-.353-.882H25.991l-.353.941H24.521a1.768,1.768,0,0,1-1.941-2.058,2.41,2.41,0,0,1,.529-1.647,1.853,1.853,0,0,1,1.47-.47h.941v.882H24.58a1.084,1.084,0,0,0-.764.235,1.381,1.381,0,0,0-.294.941,1.279,1.279,0,0,0,.294,1,.937.937,0,0,0,.706.235h.412l1.352-3.234h1.47l1.647,3.94v-3.94h1.47l1.705,2.881v-2.881h1v4.057Z" transform="translate(0 -164.4)" fill="#0571c1"/>
  <g id="Group_211" data-name="Group 211" transform="translate(14.818 1.529)">
    <path id="Path_197" data-name="Path 197" d="M358.4,186.846h1.353l-.647-1.646Z" transform="translate(-346.874 -185.2)" fill="#228fe0"/>
    <path id="Path_198" data-name="Path 198" d="M203.129,280.552V277.2l-1.529,1.647Z" transform="translate(-201.6 -270.438)" fill="#228fe0"/>
  </g>
  <path id="Path_199" data-name="Path 199" d="M136.8,282.8v.764h2.176v.823H136.8v.882h2.411l1.117-1.235L139.27,282.8Z" transform="translate(-126.745 -274.097)" fill="#2fabf7"/>
  <path id="SVGCleanerId_0" d="M237.235,282.8H236v1.059h1.294c.353,0,.588-.176.588-.529A.593.593,0,0,0,237.235,282.8Z" transform="translate(-218.653 -274.097)" fill="#228fe0"/>
  <path id="Path_200" data-name="Path 200" d="M139.779,263.046V260.4h-2.47a1.929,1.929,0,0,0-1.235.353V260.4h-2.7a1.866,1.866,0,0,0-1.176.353V260.4H127.43v.353a2.273,2.273,0,0,0-1.294-.353h-3.175v.353a2.232,2.232,0,0,0-1.352-.353H118.08l-.823.882-.764-.882H111.2v5.763h5.175l.823-.882.764.882h3.175V264.81h.412a3.578,3.578,0,0,0,1.352-.176v1.588h2.646v-1.529h.118c.176,0,.176,0,.176.176v1.352h8a2.306,2.306,0,0,0,1.352-.353v.353h2.529a2.641,2.641,0,0,0,1.411-.294h0a2,2,0,0,0,.941-1.764A2.252,2.252,0,0,0,139.779,263.046Zm-18.229.941h-1.176V265.4h-1.882l-1.176-1.353-1.235,1.353H112.2v-4.175h3.94l1.176,1.353,1.235-1.353h3.117c.764,0,1.647.235,1.647,1.353C123.255,263.752,122.431,263.987,121.549,263.987Zm5.88-.235a1.334,1.334,0,0,1,.176.764v.823h-1v-.529a1.313,1.313,0,0,0-.176-.823c-.118-.176-.353-.176-.706-.176h-1.058v1.529h-1v-4.175H125.9a2.368,2.368,0,0,1,1.176.176,1.04,1.04,0,0,1,.529.941,1.171,1.171,0,0,1-.706,1.117A1,1,0,0,1,127.43,263.752Zm4.057-1.705h-2.293v.764h2.235v.823h-2.235v.823h2.293v.882h-3.293v-4.175h3.293Zm2.47,3.293h-1.882v-.882h1.882a.5.5,0,0,0,.412-.118.426.426,0,0,0,0-.588.5.5,0,0,0-.353-.118c-.941-.059-2.058,0-2.058-1.294,0-.588.353-1.235,1.411-1.235h1.941v1h-1.823a.872.872,0,0,0-.412.059c-.118.059-.118.176-.118.294,0,.176.118.235.235.294a.745.745,0,0,0,.353.059h.529a1.5,1.5,0,0,1,1.117.353,1.217,1.217,0,0,1,.294.882C135.486,264.928,134.957,265.34,133.957,265.34Zm5.057-.412a1.715,1.715,0,0,1-1.235.412H135.9v-.882h1.882a.5.5,0,0,0,.412-.118.426.426,0,0,0,0-.588.5.5,0,0,0-.353-.118c-.941-.059-2.058,0-2.058-1.294,0-.588.353-1.235,1.411-1.235h1.941v1h-1.764a.872.872,0,0,0-.412.059c-.118.059-.118.176-.118.294,0,.176.059.235.235.294a.745.745,0,0,0,.353.059h.529a1.5,1.5,0,0,1,1.117.353.058.058,0,0,1,.059.059,1.35,1.35,0,0,1,.235.823A1.2,1.2,0,0,1,139.014,264.928Z" transform="translate(-103.026 -253.344)" fill="#0571c1"/>
  <path id="SVGCleanerId_1" d="M296.847,283.659a1.147,1.147,0,0,0-.47-.059H295.2v.941h1.176a1.147,1.147,0,0,0,.47-.059.458.458,0,0,0,.176-.412A.327.327,0,0,0,296.847,283.659Z" transform="translate(-273.502 -274.838)" fill="#228fe0"/>
  <g id="Group_212" data-name="Group 212" transform="translate(14.818 1.529)">
    <path id="Path_201" data-name="Path 201" d="M240.847,187.659a1.146,1.146,0,0,0-.47-.059H239.2v.941h1.176a1.147,1.147,0,0,0,.47-.059.458.458,0,0,0,.176-.412A.327.327,0,0,0,240.847,187.659Z" transform="translate(-236.436 -187.424)" fill="#228fe0"/>
    <path id="Path_202" data-name="Path 202" d="M358.4,186.846h1.353l-.647-1.646Z" transform="translate(-346.874 -185.2)" fill="#228fe0"/>
    <path id="Path_203" data-name="Path 203" d="M203.129,280.552V277.2l-1.529,1.647Z" transform="translate(-201.6 -270.438)" fill="#228fe0"/>
  </g>
  <g id="Group_213" data-name="Group 213" transform="translate(17.347 8.703)">
    <path id="SVGCleanerId_0_1_" d="M237.235,282.8H236v1.059h1.294c.353,0,.588-.176.588-.529A.593.593,0,0,0,237.235,282.8Z" transform="translate(-236 -282.8)" fill="#228fe0"/>
  </g>
  <g id="Group_214" data-name="Group 214" transform="translate(21.698 8.762)">
    <path id="SVGCleanerId_1_1_" d="M296.847,283.659a1.147,1.147,0,0,0-.47-.059H295.2v.941h1.176a1.147,1.147,0,0,0,.47-.059.458.458,0,0,0,.176-.412A.327.327,0,0,0,296.847,283.659Z" transform="translate(-295.2 -283.6)" fill="#228fe0"/>
  </g>
  <g id="Group_215" data-name="Group 215" transform="translate(0 0)">
    <path id="Path_204" data-name="Path 204" d="M121.2,265.222l-.823-.882v1h-1.941l-1.176-1.353-1.294,1.353h-3.881v-4.116h3.94l1.235,1.352.588-.706-1.47-1.47H111.2v5.763h5.175l.882-.882.764.882H121.2Z" transform="translate(-103.026 -253.344)" fill="#2fabf7"/>
    <path id="Path_205" data-name="Path 205" d="M12.055,170.163l-.764-.823h-.353v-.353l-.882-.882-.588,1.235H8.644l-1.411-3.234v3.234h-2l-.412-.882h-2l-.412.882H1.352l1.764-4.116h1.47l1.646,3.94v-3.94h.882l-.823-.823H5.41v.706l-.294-.706H2.529l-1.176,2.764-1.352,3H3.058l.353-.882h.823l.412.882H7.938v-.706l.294.706H9.938l.294-.706v.706Z" transform="translate(0 -164.4)" fill="#2fabf7"/>
    <path id="Path_206" data-name="Path 206" d="M115.341,194.141l-.941-.941.706,1.529Z" transform="translate(-105.991 -191.083)" fill="#2fabf7"/>
  </g>
  <g id="Group_216" data-name="Group 216" transform="translate(5.822 0.059)">
    <path id="Path_207" data-name="Path 207" d="M197.686,263.645a2.151,2.151,0,0,0,.941-1.588l-.823-.823a1.739,1.739,0,0,1,.118.588,1.2,1.2,0,0,1-.353.882,1.715,1.715,0,0,1-1.235.412h-1.882v-.882h1.882a.5.5,0,0,0,.412-.118.426.426,0,0,0,0-.588.5.5,0,0,0-.353-.118c-.941-.059-2.058,0-2.058-1.294,0-.588.353-1.117,1.235-1.235l-.647-.647c-.118.059-.176.118-.235.118V258h-2.7a1.866,1.866,0,0,0-1.176.353V258h-4.822v.353a2.273,2.273,0,0,0-1.294-.353h-3.175v.353a2.232,2.232,0,0,0-1.352-.353h-3.528l-.823.882-.764-.882H174.4l1.764,1.764.882-.941h3.117c.764,0,1.647.235,1.647,1.352,0,1.176-.823,1.411-1.705,1.411h-1.176v.882l.882.882v-.882h.294a3.577,3.577,0,0,0,1.352-.176v1.588H184.1v-1.529h.118c.176,0,.176,0,.176.176v1.353h8a2.305,2.305,0,0,0,1.352-.353v.353h2.529a2.333,2.333,0,0,0,1.411-.235Zm-11.7-2.117a1.334,1.334,0,0,1,.176.764v.823h-1v-.529a1.313,1.313,0,0,0-.176-.823c-.118-.176-.353-.176-.706-.176H183.22v1.529h-1v-4.175h2.235a2.367,2.367,0,0,1,1.176.176,1.04,1.04,0,0,1,.529.941,1.171,1.171,0,0,1-.706,1.117A1.006,1.006,0,0,1,185.984,261.528Zm4.057-1.705h-2.293v.764h2.235v.823h-2.235v.823h2.293v.882h-3.293v-4.175h3.293Zm2.47,3.293H190.63v-.882h1.882a.5.5,0,0,0,.412-.118.426.426,0,0,0,0-.588.5.5,0,0,0-.353-.118c-.941-.059-2.058,0-2.058-1.294,0-.588.353-1.235,1.411-1.235h1.941v1h-1.823a.871.871,0,0,0-.412.059c-.118.059-.118.176-.118.294,0,.176.118.235.235.294a.746.746,0,0,0,.353.059h.529a1.5,1.5,0,0,1,1.117.353,1.217,1.217,0,0,1,.294.882C194.04,262.7,193.511,263.116,192.511,263.116Z" transform="translate(-167.402 -251.179)" fill="#228fe0"/>
    <path id="Path_208" data-name="Path 208" d="M459.2,283.953c0,.176.059.235.235.294a.746.746,0,0,0,.353.059h.529a1.707,1.707,0,0,1,.823.176l-.882-.882h-.529a.871.871,0,0,0-.411.059A.449.449,0,0,0,459.2,283.953Z" transform="translate(-431.268 -274.897)" fill="#228fe0"/>
    <path id="Path_209" data-name="Path 209" d="M431.2,240.4l.118.176h.059Z" transform="translate(-405.327 -234.872)" fill="#228fe0"/>
    <path id="Path_210" data-name="Path 210" d="M387.2,196.4l1,2.411V197.4Z" transform="translate(-364.561 -194.107)" fill="#228fe0"/>
    <path id="Path_211" data-name="Path 211" d="M91.784,169.434H91.9c.118,0,.118,0,.118.176V170.9h4.234v-.353a3.523,3.523,0,0,0,1.588.353H99.6l.353-.941h.823l.353.941h3.411v-.588l-.823-.823v.647h-2l-.294-.941H99.37l-.353.941H97.9a1.768,1.768,0,0,1-1.941-2.058,2.41,2.41,0,0,1,.529-1.646,1.853,1.853,0,0,1,1.47-.47H98.9v.882h-.941a1.084,1.084,0,0,0-.764.235,1.381,1.381,0,0,0-.294.941,1.279,1.279,0,0,0,.294,1,.937.937,0,0,0,.706.235h.412l1.352-3.234h.588l-.823-.823H97.9a3.58,3.58,0,0,0-1.646.353V165.2H93.666v.353a1.7,1.7,0,0,0-1.117-.353H83.081l-.647,1.47-.647-1.47H79.2l.823.823H81.2l1,2.176.353.353,1.058-2.587h1.646v4.175h-1v-3.234l-1,2.352,1.705,1.705h6.762Zm2.7-3.469h1v4.175h-1Zm-5.175.882H87.021v.764h2.235v.823H87.021v.823h2.293v.882H86.021v-4.175h3.293Zm1.646,3.234h-1v-4.175H92.2a2.254,2.254,0,0,1,1.176.176,1,1,0,0,1,.47.941,1.171,1.171,0,0,1-.706,1.117.77.77,0,0,1,.47.353,1.471,1.471,0,0,1,.176.764v.823h-1v-.529a1.4,1.4,0,0,0-.176-.823c-.059-.118-.235-.118-.588-.118H90.961v1.47Z" transform="translate(-79.2 -165.2)" fill="#228fe0"/>
  </g>
</svg>
