<svg id="_004-discover" data-name="004-discover" xmlns="http://www.w3.org/2000/svg" width="44.002" height="7.523" viewBox="0 0 44.002 7.523">
  <ellipse id="Ellipse_33" data-name="Ellipse 33" cx="3.69" cy="3.69" rx="3.69" ry="3.69" transform="translate(19.659 0.071)" fill="#ef9122"/>
  <path id="Path_212" data-name="Path 212" d="M221.6,173.691a3.69,3.69,0,1,1,3.69,3.69" transform="translate(-201.941 -169.929)" fill="#f26e21"/>
  <path id="Path_213" data-name="Path 213" d="M234.4,171.065a3.663,3.663,0,1,1,5.181,5.181" transform="translate(-213.606 -169.929)" fill="#f44500"/>
  <path id="Path_214" data-name="Path 214" d="M1.987,172.4H0v6.955H1.987a3.85,3.85,0,0,0,2.484-.781,3.509,3.509,0,0,0,1.277-2.7A3.435,3.435,0,0,0,1.987,172.4Zm1.632,5.252a2.728,2.728,0,0,1-1.845.568H1.348v-4.613H1.7a2.409,2.409,0,0,1,1.845.568,2.267,2.267,0,0,1,.781,1.7A2.122,2.122,0,0,1,3.62,177.652Z" transform="translate(0 -172.116)" fill="#595a5b"/>
  <rect id="SVGCleanerId_0" width="1.348" height="6.955" transform="translate(6.387 0.284)" fill="#595a5b"/>
  <path id="Path_215" data-name="Path 215" d="M96.439,174.368c-.852-.284-1.065-.5-1.065-.852a.9.9,0,0,1,.994-.781,1.373,1.373,0,0,1,1.136.568l.71-.923a3.092,3.092,0,0,0-2.058-.781,2.082,2.082,0,0,0-2.2,1.987c0,.994.426,1.419,1.7,1.916a2.76,2.76,0,0,1,.923.426.781.781,0,0,1,.426.71.989.989,0,0,1-1.065.994,1.655,1.655,0,0,1-1.49-.923l-.852.852a2.783,2.783,0,0,0,2.413,1.348,2.238,2.238,0,0,0,2.413-2.271C98.426,175.432,98,174.936,96.439,174.368Z" transform="translate(-85.296 -171.387)" fill="#595a5b"/>
  <path id="Path_216" data-name="Path 216" d="M152.8,172.961a3.606,3.606,0,0,0,3.69,3.619,4.015,4.015,0,0,0,1.7-.426v-1.632a2.206,2.206,0,0,1-1.632.781,2.293,2.293,0,0,1-2.342-2.413,2.321,2.321,0,0,1,2.271-2.413,2.237,2.237,0,0,1,1.7.781v-1.632a3.566,3.566,0,0,0-1.7-.426A3.923,3.923,0,0,0,152.8,172.961Z" transform="translate(-139.245 -169.2)" fill="#3b3d3f"/>
  <path id="Path_217" data-name="Path 217" d="M304.936,177.084,303.09,172.4H301.6l2.91,7.168h.781l3.052-7.168h-1.49Z" transform="translate(-274.844 -172.116)"/>
  <path id="Path_218" data-name="Path 218" d="M384,179.355h3.9V178.22h-2.484V176.3h2.413V175.1h-2.413v-1.49H387.9V172.4H384Z" transform="translate(-349.934 -172.116)"/>
  <g id="Group_217" data-name="Group 217" transform="translate(0 0.284)">
    <path id="Path_219" data-name="Path 219" d="M441.31,176.445a1.873,1.873,0,0,0,1.632-1.987c0-1.278-.923-2.058-2.484-2.058H438.4v6.955h1.348v-2.768h.213l1.916,2.768h1.632Zm-1.136-.852h-.426v-2.129h.426c.852,0,1.348.355,1.348,1.065S441.026,175.594,440.174,175.594Z" transform="translate(-399.508 -172.4)" fill="#595a5b"/>
    <path id="Path_220" data-name="Path 220" d="M1.987,172.4H0v6.955H1.987a3.85,3.85,0,0,0,2.484-.781,3.509,3.509,0,0,0,1.277-2.7A3.435,3.435,0,0,0,1.987,172.4Zm1.632,5.252a2.728,2.728,0,0,1-1.845.568H1.348v-4.613H1.7a2.409,2.409,0,0,1,1.845.568,2.267,2.267,0,0,1,.781,1.7A2.122,2.122,0,0,1,3.62,177.652Z" transform="translate(0 -172.4)" fill="#595a5b"/>
  </g>
  <g id="Group_218" data-name="Group 218" transform="translate(6.387 0.284)">
    <rect id="SVGCleanerId_0_1_" width="1.348" height="6.955" fill="#595a5b"/>
  </g>
  <g id="Group_219" data-name="Group 219" transform="translate(8.304 0.213)">
    <path id="Path_221" data-name="Path 221" d="M96.439,174.368c-.852-.284-1.065-.5-1.065-.852a.9.9,0,0,1,.994-.781,1.373,1.373,0,0,1,1.136.568l.71-.923a3.092,3.092,0,0,0-2.058-.781,2.082,2.082,0,0,0-2.2,1.987c0,.994.426,1.419,1.7,1.916a2.76,2.76,0,0,1,.923.426.781.781,0,0,1,.426.71.989.989,0,0,1-1.065.994,1.655,1.655,0,0,1-1.49-.923l-.852.852a2.783,2.783,0,0,0,2.413,1.348,2.238,2.238,0,0,0,2.413-2.271C98.426,175.432,98,174.936,96.439,174.368Z" transform="translate(-93.6 -171.6)" fill="#595a5b"/>
    <path id="Path_222" data-name="Path 222" d="M157.268,186.787a4.014,4.014,0,0,0,1.7-.426v-1.632a2.207,2.207,0,0,1-1.632.781A2.293,2.293,0,0,1,155,183.1a2.654,2.654,0,0,1,.71-1.774l-.923-.923a3.693,3.693,0,0,0-1.207,2.7A3.54,3.54,0,0,0,157.268,186.787Z" transform="translate(-148.254 -179.619)" fill="#595a5b"/>
  </g>
  <path id="Path_223" data-name="Path 223" d="M441.31,176.445a1.873,1.873,0,0,0,1.632-1.987c0-1.278-.923-2.058-2.484-2.058H438.4v6.955h1.348v-2.768h.213l1.916,2.768h1.632Zm-1.136-.852h-.426v-2.129h.426c.852,0,1.348.355,1.348,1.065S441.026,175.594,440.174,175.594Z" transform="translate(-399.508 -172.116)"/>
  <g id="Group_221" data-name="Group 221" transform="translate(26.756 0.284)">
    <path id="Path_231" data-name="Path 231" d="M386.7,210.3h-1.278v-1.277L384,207.6v3.832h3.833Z" transform="translate(-376.69 -204.477)" fill="#3b3d3f"/>
    <path id="Path_232" data-name="Path 232" d="M306.5,173.11l-1.561,3.974L303.09,172.4H301.6l2.91,7.168h.781l2.271-5.394Z" transform="translate(-301.6 -172.4)" fill="#3b3d3f"/>
  </g>
</svg>
