<svg id="_001-mastercard" data-name="001-mastercard" xmlns="http://www.w3.org/2000/svg" width="28.787" height="17.272" viewBox="0 0 28.787 17.272">
  <path id="Path_153" data-name="Path 153" d="M218.872,109.436a8.636,8.636,0,0,1-17.272,0h0a8.636,8.636,0,1,1,17.272,0Z" transform="translate(-190.085 -100.8)" fill="#ffb600"/>
  <path id="Path_154" data-name="Path 154" d="M210.236,100.8a8.659,8.659,0,0,1,8.636,8.636h0a8.636,8.636,0,0,1-17.272,0" transform="translate(-190.085 -100.8)" fill="#f7981d"/>
  <path id="Path_155" data-name="Path 155" d="M352.8,100.8a8.659,8.659,0,0,1,8.636,8.636h0a8.629,8.629,0,0,1-8.636,8.636" transform="translate(-332.649 -100.8)" fill="#f7981d"/>
  <path id="Path_156" data-name="Path 156" d="M8.545,100.8a8.636,8.636,0,0,0,.091,17.272,8.737,8.737,0,0,0,5.8-2.239h0a8.209,8.209,0,0,0,.868-.914H13.525a10.537,10.537,0,0,1-.64-.868h3.061a5.853,5.853,0,0,0,.5-.914H12.383a5.446,5.446,0,0,1-.366-.914H16.77a9.073,9.073,0,0,0,.457-2.742,11.8,11.8,0,0,0-.183-1.828h-5.3a6.681,6.681,0,0,1,.228-.914h4.752a5.447,5.447,0,0,0-.366-.914H12.337a9.064,9.064,0,0,1,.5-.914H15.9a4.345,4.345,0,0,0-.685-.914H13.525a7.787,7.787,0,0,1,.868-.868,8.432,8.432,0,0,0-5.8-2.239C8.59,100.8,8.59,100.8,8.545,100.8Z" transform="translate(0 -100.8)" fill="#e52836"/>
  <path id="Path_157" data-name="Path 157" d="M0,110.945a8.629,8.629,0,0,0,8.636,8.636,8.737,8.737,0,0,0,5.8-2.239h0a8.21,8.21,0,0,0,.868-.914H13.525a10.539,10.539,0,0,1-.64-.868h3.061a5.853,5.853,0,0,0,.5-.914H12.383a5.446,5.446,0,0,1-.366-.914H16.77a9.073,9.073,0,0,0,.457-2.742,11.8,11.8,0,0,0-.183-1.828h-5.3a6.681,6.681,0,0,1,.228-.914h4.752a5.447,5.447,0,0,0-.366-.914H12.337a9.064,9.064,0,0,1,.5-.914H15.9a4.345,4.345,0,0,0-.685-.914H13.525a7.787,7.787,0,0,1,.868-.868,8.432,8.432,0,0,0-5.8-2.239H8.545" transform="translate(0 -102.309)" fill="#e52836"/>
  <path id="Path_158" data-name="Path 158" d="M149.691,119.581a8.737,8.737,0,0,0,5.8-2.239h0a8.208,8.208,0,0,0,.868-.914h-1.782a10.534,10.534,0,0,1-.64-.868H157a5.854,5.854,0,0,0,.5-.914h-4.067a5.447,5.447,0,0,1-.366-.914h4.752a9.074,9.074,0,0,0,.457-2.742,11.793,11.793,0,0,0-.183-1.828h-5.3a6.678,6.678,0,0,1,.228-.914h4.752a5.447,5.447,0,0,0-.366-.914h-4.021a9.065,9.065,0,0,1,.5-.914h3.061a4.345,4.345,0,0,0-.685-.914h-1.691a7.782,7.782,0,0,1,.868-.868,8.432,8.432,0,0,0-5.8-2.239H149.6" transform="translate(-141.055 -102.309)" fill="#e52836"/>
  <g id="Group_208" data-name="Group 208" transform="translate(0.822 6.397)">
    <path id="Path_159" data-name="Path 159" d="M182.925,224.021l.137-.777a1.978,1.978,0,0,1-.228.046c-.32,0-.366-.183-.32-.274l.274-1.6h.5l.137-.868h-.457l.091-.548h-.914s-.548,3.016-.548,3.381a.686.686,0,0,0,.731.777A1.4,1.4,0,0,0,182.925,224.021Z" transform="translate(-172.05 -219.589)" fill="#fff"/>
    <path id="Path_160" data-name="Path 160" d="M210.4,230.761a1.453,1.453,0,0,0,1.6,1.6,2.372,2.372,0,0,0,.96-.137l.183-.868a2.739,2.739,0,0,1-.96.228c-1.005,0-.823-.731-.823-.731h1.873a5.925,5.925,0,0,0,.137-.822,1.238,1.238,0,0,0-1.325-1.325C211.085,228.613,210.4,229.618,210.4,230.761Zm1.6-1.325c.5,0,.411.594.411.64h-1.005C211.405,230.03,211.5,229.436,212,229.436Z" transform="translate(-199.205 -227.791)" fill="#fff"/>
    <path id="Path_161" data-name="Path 161" d="M298.513,217.232l.183-1.005a2.246,2.246,0,0,1-.777.228c-.64,0-.914-.5-.914-1.051,0-1.1.548-1.691,1.188-1.691a1.526,1.526,0,0,1,.823.274l.137-.96a3.213,3.213,0,0,0-1.051-.228c-1.051,0-2.1.914-2.1,2.65,0,1.142.548,1.919,1.645,1.919A4.1,4.1,0,0,0,298.513,217.232Z" transform="translate(-279.916 -212.8)" fill="#fff"/>
    <path id="Path_162" data-name="Path 162" d="M88.136,227.2a3.236,3.236,0,0,0-1.1.183l-.137.777a2.7,2.7,0,0,1,1.005-.183c.32,0,.594.046.594.32,0,.183-.046.228-.046.228h-.411c-.777,0-1.645.32-1.645,1.371,0,.823.548,1.005.868,1.005a1.373,1.373,0,0,0,.96-.411l-.046.366H89l.366-2.513A1.083,1.083,0,0,0,88.136,227.2Zm.183,2.056c0,.137-.091.868-.64.868a.357.357,0,0,1-.366-.366c0-.228.137-.548.822-.548A.721.721,0,0,0,88.319,229.256Z" transform="translate(-82.288 -226.378)" fill="#fff"/>
    <path id="Path_163" data-name="Path 163" d="M136.251,230.147a1.171,1.171,0,0,0,1.371-1.188c0-1.142-1.1-.914-1.1-1.371,0-.228.183-.32.5-.32.137,0,.64.046.64.046l.137-.823a3.472,3.472,0,0,0-.868-.091c-.685,0-1.371.274-1.371,1.188,0,1.051,1.142.96,1.142,1.371,0,.274-.32.32-.548.32a2.988,2.988,0,0,1-.823-.137l-.137.822C135.246,230.056,135.474,230.147,136.251,230.147Z" transform="translate(-128.3 -225.623)" fill="#fff"/>
    <path id="Path_164" data-name="Path 164" d="M429.8,214.4l-.183,1.234a1.267,1.267,0,0,0-.868-.457c-.823,0-1.554,1.005-1.554,2.193,0,.731.366,1.508,1.142,1.508a1.22,1.22,0,0,0,.868-.366l-.046.32h.914l.685-4.387Zm-.411,2.422c0,.5-.228,1.142-.731,1.142-.32,0-.5-.274-.5-.731,0-.731.32-1.188.731-1.188C429.21,216.045,429.393,216.273,429.393,216.822Z" transform="translate(-403.622 -214.309)" fill="#fff"/>
    <path id="Path_165" data-name="Path 165" d="M15.268,218.787l.548-3.29.091,3.29h.64l1.188-3.29-.5,3.29h.96l.731-4.387H17.416l-.914,2.7-.046-2.7H15.131l-.731,4.387Z" transform="translate(-14.4 -214.309)" fill="#fff"/>
    <path id="Path_166" data-name="Path 166" d="M261.005,232.364c.274-1.508.32-2.742.96-2.513a3.586,3.586,0,0,1,.32-1.051H262.1c-.411,0-.731.548-.731.548l.091-.5h-.868L260,232.41h1.005Z" transform="translate(-245.972 -227.886)" fill="#fff"/>
    <path id="Path_167" data-name="Path 167" d="M348.136,227.2a3.236,3.236,0,0,0-1.1.183l-.137.777a2.7,2.7,0,0,1,1.005-.183c.32,0,.594.046.594.32,0,.183-.046.228-.046.228h-.411c-.777,0-1.645.32-1.645,1.371,0,.823.548,1.005.868,1.005a1.373,1.373,0,0,0,.96-.411l-.046.366H349l.366-2.513A1.067,1.067,0,0,0,348.136,227.2Zm.228,2.056c0,.137-.091.868-.64.868a.357.357,0,0,1-.366-.366c0-.228.137-.548.822-.548C348.319,229.256,348.319,229.256,348.365,229.256Z" transform="translate(-327.437 -226.378)" fill="#fff"/>
    <path id="Path_168" data-name="Path 168" d="M395.405,232.364c.274-1.508.32-2.742.96-2.513a3.585,3.585,0,0,1,.32-1.051H396.5c-.411,0-.731.548-.731.548l.091-.5h-.868l-.594,3.564h1.005Z" transform="translate(-372.695 -227.886)" fill="#fff"/>
  </g>
  <g id="Group_209" data-name="Group 209" transform="translate(0.822 6.397)">
    <path id="Path_169" data-name="Path 169" d="M180,223.381a.686.686,0,0,0,.731.777,1.74,1.74,0,0,0,.685-.137l.137-.777a1.98,1.98,0,0,1-.229.046c-.32,0-.366-.183-.32-.274l.274-1.6h.5l.137-.868h-.457l.091-.548" transform="translate(-170.541 -219.589)" fill="#dce5e5"/>
    <path id="Path_170" data-name="Path 170" d="M218.4,230.761c0,1.279.411,1.6,1.142,1.6a2.372,2.372,0,0,0,.96-.137l.183-.868a2.74,2.74,0,0,1-.96.228c-1.005,0-.822-.731-.822-.731h1.873a5.925,5.925,0,0,0,.137-.822,1.238,1.238,0,0,0-1.325-1.325C218.628,228.613,218.4,229.618,218.4,230.761Zm1.142-1.325c.5,0,.594.594.594.64h-1.188C218.948,230.03,219.04,229.436,219.542,229.436Z" transform="translate(-206.748 -227.791)" fill="#dce5e5"/>
    <path id="Path_171" data-name="Path 171" d="M306.056,217.232l.183-1.005a2.246,2.246,0,0,1-.777.228c-.64,0-.914-.5-.914-1.051,0-1.1.548-1.691,1.188-1.691a1.526,1.526,0,0,1,.822.274l.137-.96a3.213,3.213,0,0,0-1.051-.228c-1.051,0-1.645.914-1.645,2.65,0,1.142.091,1.919,1.188,1.919A4.1,4.1,0,0,0,306.056,217.232Z" transform="translate(-287.459 -212.8)" fill="#dce5e5"/>
    <path id="Path_172" data-name="Path 172" d="M86.9,229.714a2.7,2.7,0,0,1,1.005-.183c.32,0,.594.046.594.32,0,.183-.046.228-.046.228h-.411c-.777,0-1.645.32-1.645,1.371,0,.822.548,1.005.868,1.005a1.373,1.373,0,0,0,.96-.411l-.046.366H89l.366-2.513c0-1.051-.914-1.1-1.279-1.1m.685,1.965a1.5,1.5,0,0,1-1.1.868.357.357,0,0,1-.366-.366c0-.228.137-.548.822-.548A3.736,3.736,0,0,0,88.776,230.765Z" transform="translate(-82.288 -227.886)" fill="#dce5e5"/>
    <path id="Path_173" data-name="Path 173" d="M136,230.056a3.867,3.867,0,0,0,1.051.091,1.171,1.171,0,0,0,1.371-1.188c0-1.142-1.1-.914-1.1-1.371,0-.228.183-.32.5-.32.137,0,.64.046.64.046l.137-.823a3.472,3.472,0,0,0-.868-.091c-.685,0-.914.274-.914,1.188,0,1.051.685.96.685,1.371,0,.274-.32.32-.548.32" transform="translate(-129.055 -225.623)" fill="#dce5e5"/>
    <path id="Path_174" data-name="Path 174" d="M437.11,216.388a1.267,1.267,0,0,0-.868-.457c-.822,0-1.1,1.005-1.1,2.193,0,.731-.091,1.508.685,1.508a1.22,1.22,0,0,0,.868-.366l-.046.32h.914l.685-4.387m-1.188,2.376c0,.5-.411,1.142-.914,1.142-.32,0-.5-.274-.5-.731,0-.731.32-1.188.731-1.188A.7.7,0,0,1,437.064,217.576Z" transform="translate(-411.11 -215.063)" fill="#dce5e5"/>
    <path id="Path_175" data-name="Path 175" d="M15.268,218.787l.548-3.29.091,3.29h.64l1.188-3.29-.5,3.29h.96l.731-4.387H17.781L16.5,217.1l-.046-2.7h-.5L14.4,218.787Z" transform="translate(-14.4 -214.309)" fill="#dce5e5"/>
    <path id="Path_176" data-name="Path 176" d="M260.8,232.364h.96c.274-1.508.32-2.742.96-2.513a3.586,3.586,0,0,1,.32-1.051h-.183c-.411,0-.731.548-.731.548l.091-.5" transform="translate(-246.726 -227.886)" fill="#dce5e5"/>
    <path id="Path_177" data-name="Path 177" d="M346.9,229.714a2.7,2.7,0,0,1,1.005-.183c.32,0,.594.046.594.32,0,.183-.046.228-.046.228h-.411c-.777,0-1.645.32-1.645,1.371,0,.822.548,1.005.868,1.005a1.373,1.373,0,0,0,.96-.411l-.046.366H349l.366-2.513c0-1.051-.914-1.1-1.279-1.1m.685,1.965a1.5,1.5,0,0,1-1.1.868.357.357,0,0,1-.366-.366c0-.228.137-.548.823-.548A4.022,4.022,0,0,0,348.776,230.765Z" transform="translate(-327.437 -227.886)" fill="#dce5e5"/>
    <path id="Path_178" data-name="Path 178" d="M395.2,232.364h.96c.274-1.508.32-2.742.96-2.513a3.588,3.588,0,0,1,.32-1.051h-.183c-.411,0-.731.548-.731.548l.091-.5" transform="translate(-373.45 -227.886)" fill="#dce5e5"/>
  </g>
</svg>
