<svg id="_004-search" data-name="004-search" xmlns="http://www.w3.org/2000/svg" width="33.778" height="33.778" viewBox="0 0 33.778 33.778">
  <path id="Path_145" data-name="Path 145" d="M7.486,149.559,6.31,153.948l-4.3.091a16.919,16.919,0,0,1-.124-15.771h0l3.826.7,1.676,3.8a10.08,10.08,0,0,0,.095,6.786Z" transform="translate(0 -129.146)" fill="#fff"/>
  <path id="Path_146" data-name="Path 146" d="M277.851,208.176A16.882,16.882,0,0,1,271.83,224.5h0l-4.819-.246L266.328,220a10.065,10.065,0,0,0,4.331-5.14h-9.031v-6.681h16.223Z" transform="translate(-244.368 -194.442)" fill="#fff"/>
  <path id="Path_147" data-name="Path 147" d="M55.958,319.055h0a16.895,16.895,0,0,1-25.45-5.167l5.473-4.48a10.045,10.045,0,0,0,14.474,5.143Z" transform="translate(-28.496 -288.996)" fill="#fff"/>
  <path id="Path_148" data-name="Path 148" d="M54.4,3.888,48.934,8.367a10.043,10.043,0,0,0-14.807,5.259l-5.5-4.5h0A16.893,16.893,0,0,1,54.4,3.888Z" transform="translate(-26.736)" fill="#fff"/>
</svg>
