<svg xmlns="http://www.w3.org/2000/svg" width="20.924" height="25.513" viewBox="0 0 24.924 26.513">
  <g id="Group_286" data-name="Group 286" transform="translate(790.116 -315.324)">
    <path id="Icon_weather-cloud-down" data-name="Icon weather-cloud-down" d="M5.532,20.256a5.718,5.718,0,0,0,1.68,4.128,5.867,5.867,0,0,0,4.08,1.836.184.184,0,0,0,.2-.2V24.408c0-.144-.072-.216-.2-.216a3.718,3.718,0,0,1-2.628-1.224,3.829,3.829,0,0,1-1.08-2.712,3.714,3.714,0,0,1,1.02-2.6,3.953,3.953,0,0,1,2.52-1.284l.636-.048c.156,0,.24-.072.24-.2l.1-.66A4.8,4.8,0,0,1,13.728,12.2a5.157,5.157,0,0,1,6.864,0,4.932,4.932,0,0,1,1.68,3.252l.084.7a.184.184,0,0,0,.2.2H24.5a3.783,3.783,0,0,1,2.772,1.164,3.716,3.716,0,0,1,1.176,2.736,3.964,3.964,0,0,1-3.72,3.936c-.156,0-.228.072-.228.216v1.608c0,.132.072.2.228.2a5.552,5.552,0,0,0,2.892-.864,5.934,5.934,0,0,0,2.832-5.1,5.681,5.681,0,0,0-.8-2.976,5.924,5.924,0,0,0-5.16-2.928h-.4a7.107,7.107,0,0,0-2.52-3.948,6.881,6.881,0,0,0-4.428-1.536A7.2,7.2,0,0,0,10.1,14.484a5.8,5.8,0,0,0-3.276,2.088A5.73,5.73,0,0,0,5.532,20.256Z" transform="translate(-795.648 306.456)"/>
    <path id="Icon_awesome-long-arrow-alt-down" data-name="Icon awesome-long-arrow-alt-down" d="M7.18,14.636V2.723a.473.473,0,0,0-.473-.473H4.5a.473.473,0,0,0-.473.473V14.636H2.207a.947.947,0,0,0-.67,1.616l3.4,3.4a.947.947,0,0,0,1.339,0l3.4-3.4A.947.947,0,0,0,9,14.636H7.18Z" transform="translate(-783.312 321.913)"/>
  </g>
</svg>
