<svg xmlns="http://www.w3.org/2000/svg" width="33.018" height="26.827" viewBox="0 0 33.018 26.827">
  <path id="_001-twitter" data-name="001-twitter" d="M33.018,51.176a14.113,14.113,0,0,1-3.9,1.069A6.731,6.731,0,0,0,32.1,48.5,13.528,13.528,0,0,1,27.8,50.142a6.768,6.768,0,0,0-11.709,4.629,6.97,6.97,0,0,0,.157,1.544A19.16,19.16,0,0,1,2.3,49.234a6.771,6.771,0,0,0,2.08,9.047,6.685,6.685,0,0,1-3.058-.834v.074a6.8,6.8,0,0,0,5.423,6.651,6.756,6.756,0,0,1-1.775.223,5.987,5.987,0,0,1-1.282-.116A6.833,6.833,0,0,0,10.013,69,13.6,13.6,0,0,1,1.62,71.882,12.681,12.681,0,0,1,0,71.789a19.056,19.056,0,0,0,10.384,3.038c12.456,0,19.266-10.318,19.266-19.262,0-.3-.01-.588-.025-.875A13.5,13.5,0,0,0,33.018,51.176Z" transform="translate(0 -48)" fill="#fff"/>
</svg>
