<svg xmlns="http://www.w3.org/2000/svg" viewBox="0 0 654 616">
  <defs>
    <style>
      .cls-1 {
        fill: #000;
        fill-rule: evenodd;
      }
    </style>
  </defs>
  <path id="Color_Fill_1" data-name="Color Fill 1" class="cls-1" d="M215,0c58.572-.984,93.854,24.667,110,65l3-2C373.243-41.627,551.725-8.45,514,129c64.452-.638,114.572-4.365,133,41,11.782,29,4,84.571,4,121V485c0,29.5,4.334,69.229-5,91-9.2,21.465-28.43,34.573-55,39H161c-64.866,0-126.876,8.04-151-33-13.288-22.606-8-70.437-8-105V254c0-44.055-2.55-83.34,18-106,21.643-23.864,71.137-19.4,117-19-9.617-55.053,1.692-92.509,41-116C191.044,5.2,197.185,2.475,215,0ZM67,194V389H586V194l-164,1,3,3,63,88c-12.6,5.509-45.933,37.678-55,35l-40-55c-19.675-27.516-42.907-71-68-92v2L216,323l-51-38,66-90v-1H67Zm0,292v64H586V486H67ZM229,63a33,33,0,1,1-33,33A33,33,0,0,1,229,63Zm195-1a33,33,0,1,1-33,33A33,33,0,0,1,424,62Z"/>
</svg>
